<svg xmlns="http://www.w3.org/2000/svg" xmlns:xlink="http://www.w3.org/1999/xlink" version="1.1" width="1000" height="1000" viewBox="0 0 1000 1000" xml:space="preserve">
<desc>Created with Fabric.js 3.5.0</desc>
<defs>
</defs>
<rect x="0" y="0" width="100%" height="100%" fill="rgba(255,255,255,0)"/>
<g transform="matrix(0.8926 0 0 0.8926 499.9859 376.1657)" id="441982">
<g style="" vector-effect="non-scaling-stroke">
		<g transform="matrix(1.5748 0 0 1.5748 -0.0008 -0.0008)" id="Layer_1">
<circle style="stroke: none; stroke-width: 1; stroke-dasharray: none; stroke-linecap: butt; stroke-dashoffset: 0; stroke-linejoin: miter; stroke-miterlimit: 4; is-custom-font: none; font-file-url: none; fill: rgb(255,208,91); fill-rule: nonzero; opacity: 1;" cx="0" cy="0" r="254"/>
</g>
		<g transform="matrix(1.5748 0 0 1.5748 -0.0004 59.2122)" id="Layer_1">
<ellipse style="stroke: none; stroke-width: 1; stroke-dasharray: none; stroke-linecap: butt; stroke-dashoffset: 0; stroke-linejoin: miter; stroke-miterlimit: 4; is-custom-font: none; font-file-url: none; fill: rgb(50,74,94); fill-rule: nonzero; opacity: 1;" cx="0" cy="0" rx="143.6" ry="124.8"/>
</g>
		<g transform="matrix(1.5748 0 0 1.5748 -0.0004 25.5114)" id="Layer_1">
<path style="stroke: none; stroke-width: 1; stroke-dasharray: none; stroke-linecap: butt; stroke-dashoffset: 0; stroke-linejoin: miter; stroke-miterlimit: 4; is-custom-font: none; font-file-url: none; fill: rgb(43,59,78); fill-rule: nonzero; opacity: 1;" transform=" translate(-254, -270.2)" d="M 204 416.4 h 99.6 c 7.6 0 14.8 -3.2 20 -8.8 C 352 378.8 370 333.2 370 282 c 0 -87.2 -52 -158 -116 -158 s -116 70.8 -116 158 c 0 51.2 18 96.8 46 126 C 189.6 413.2 196.8 416.4 204 416.4 z" stroke-linecap="round"/>
</g>
		<g transform="matrix(1.5748 0 0 1.5748 -0.0003 -134.1735)" id="Layer_1">
<ellipse style="stroke: none; stroke-width: 1; stroke-dasharray: none; stroke-linecap: butt; stroke-dashoffset: 0; stroke-linejoin: miter; stroke-miterlimit: 4; is-custom-font: none; font-file-url: none; fill: rgb(50,74,94); fill-rule: nonzero; opacity: 1;" cx="0" cy="0" rx="117.2" ry="88"/>
</g>
		<g transform="matrix(1.5748 0 0 1.5748 -0.0001 -92.9135)" id="Layer_1">
<path style="stroke: none; stroke-width: 1; stroke-dasharray: none; stroke-linecap: butt; stroke-dashoffset: 0; stroke-linejoin: miter; stroke-miterlimit: 4; is-custom-font: none; font-file-url: none; fill: rgb(255,208,91); fill-rule: nonzero; opacity: 1;" transform=" translate(-254, -195)" d="M 254 169.2 L 254 169.2 c -14.4 14.4 -14.4 37.2 0 51.6 l 0 0 l 0 0 C 268.4 206.4 268.4 183.6 254 169.2 z" stroke-linecap="round"/>
</g>
		<g transform="matrix(1.5748 0 0 1.5748 71.181 -133.5434)" id="Layer_1">
<circle style="stroke: none; stroke-width: 1; stroke-dasharray: none; stroke-linecap: butt; stroke-dashoffset: 0; stroke-linejoin: miter; stroke-miterlimit: 4; is-custom-font: none; font-file-url: none; fill: rgb(255,255,255); fill-rule: nonzero; opacity: 1;" cx="0" cy="0" r="45.2"/>
</g>
		<g transform="matrix(1.5748 0 0 1.5748 71.181 -133.5434)" id="Layer_1">
<circle style="stroke: none; stroke-width: 1; stroke-dasharray: none; stroke-linecap: butt; stroke-dashoffset: 0; stroke-linejoin: miter; stroke-miterlimit: 4; is-custom-font: none; font-file-url: none; fill: rgb(132,219,255); fill-rule: nonzero; opacity: 1;" cx="0" cy="0" r="30.4"/>
</g>
		<g transform="matrix(1.5748 0 0 1.5748 71.1811 -133.5433)" id="Layer_1">
<circle style="stroke: none; stroke-width: 1; stroke-dasharray: none; stroke-linecap: butt; stroke-dashoffset: 0; stroke-linejoin: miter; stroke-miterlimit: 4; is-custom-font: none; font-file-url: none; fill: rgb(84,192,235); fill-rule: nonzero; opacity: 1;" cx="0" cy="0" r="17.2"/>
</g>
		<g transform="matrix(1.5748 0 0 1.5748 52.9134 -151.1811)" id="Layer_1">
<circle style="stroke: none; stroke-width: 1; stroke-dasharray: none; stroke-linecap: butt; stroke-dashoffset: 0; stroke-linejoin: miter; stroke-miterlimit: 4; is-custom-font: none; font-file-url: none; fill: rgb(255,255,255); fill-rule: nonzero; opacity: 1;" cx="0" cy="0" r="7.2"/>
</g>
		<g transform="matrix(1.5748 0 0 1.5748 66.7716 -137.3228)" id="Layer_1">
<circle style="stroke: none; stroke-width: 1; stroke-dasharray: none; stroke-linecap: butt; stroke-dashoffset: 0; stroke-linejoin: miter; stroke-miterlimit: 4; is-custom-font: none; font-file-url: none; fill: rgb(255,255,255); fill-rule: nonzero; opacity: 1;" cx="0" cy="0" r="4"/>
</g>
		<g transform="matrix(1.5748 0 0 1.5748 -71.1812 -133.5434)" id="Layer_1">
<circle style="stroke: none; stroke-width: 1; stroke-dasharray: none; stroke-linecap: butt; stroke-dashoffset: 0; stroke-linejoin: miter; stroke-miterlimit: 4; is-custom-font: none; font-file-url: none; fill: rgb(255,255,255); fill-rule: nonzero; opacity: 1;" cx="0" cy="0" r="45.2"/>
</g>
		<g transform="matrix(1.5748 0 0 1.5748 -71.1812 -133.5434)" id="Layer_1">
<circle style="stroke: none; stroke-width: 1; stroke-dasharray: none; stroke-linecap: butt; stroke-dashoffset: 0; stroke-linejoin: miter; stroke-miterlimit: 4; is-custom-font: none; font-file-url: none; fill: rgb(132,219,255); fill-rule: nonzero; opacity: 1;" cx="0" cy="0" r="30.4"/>
</g>
		<g transform="matrix(1.5748 0 0 1.5748 -71.1811 -133.5433)" id="Layer_1">
<circle style="stroke: none; stroke-width: 1; stroke-dasharray: none; stroke-linecap: butt; stroke-dashoffset: 0; stroke-linejoin: miter; stroke-miterlimit: 4; is-custom-font: none; font-file-url: none; fill: rgb(84,192,235); fill-rule: nonzero; opacity: 1;" cx="0" cy="0" r="17.2"/>
</g>
		<g transform="matrix(1.5748 0 0 1.5748 -89.4488 -151.1811)" id="Layer_1">
<circle style="stroke: none; stroke-width: 1; stroke-dasharray: none; stroke-linecap: butt; stroke-dashoffset: 0; stroke-linejoin: miter; stroke-miterlimit: 4; is-custom-font: none; font-file-url: none; fill: rgb(255,255,255); fill-rule: nonzero; opacity: 1;" cx="0" cy="0" r="7.2"/>
</g>
		<g transform="matrix(1.5748 0 0 1.5748 -75.5906 -137.3228)" id="Layer_1">
<circle style="stroke: none; stroke-width: 1; stroke-dasharray: none; stroke-linecap: butt; stroke-dashoffset: 0; stroke-linejoin: miter; stroke-miterlimit: 4; is-custom-font: none; font-file-url: none; fill: rgb(255,255,255); fill-rule: nonzero; opacity: 1;" cx="0" cy="0" r="4"/>
</g>
		<g transform="matrix(1.5748 0 0 1.5748 73.0708 108.6614)" id="Layer_1">
<path style="stroke: none; stroke-width: 1; stroke-dasharray: none; stroke-linecap: butt; stroke-dashoffset: 0; stroke-linejoin: miter; stroke-miterlimit: 4; is-custom-font: none; font-file-url: none; fill: rgb(50,74,94); fill-rule: nonzero; opacity: 1;" transform=" translate(-300.4, -323)" d="M 277.2 312.8 c 4 12 12.8 20.4 23.2 20.4 s 19.2 -8.4 23.2 -20.4 H 277.2 z" stroke-linecap="round"/>
</g>
		<g transform="matrix(1.5748 0 0 1.5748 0 108.6614)" id="Layer_1">
<path style="stroke: none; stroke-width: 1; stroke-dasharray: none; stroke-linecap: butt; stroke-dashoffset: 0; stroke-linejoin: miter; stroke-miterlimit: 4; is-custom-font: none; font-file-url: none; fill: rgb(50,74,94); fill-rule: nonzero; opacity: 1;" transform=" translate(-254, -323)" d="M 230.8 312.8 c 4 12 12.8 20.4 23.2 20.4 s 19.2 -8.4 23.2 -20.4 H 230.8 z" stroke-linecap="round"/>
</g>
		<g transform="matrix(1.5748 0 0 1.5748 -72.441 108.6614)" id="Layer_1">
<path style="stroke: none; stroke-width: 1; stroke-dasharray: none; stroke-linecap: butt; stroke-dashoffset: 0; stroke-linejoin: miter; stroke-miterlimit: 4; is-custom-font: none; font-file-url: none; fill: rgb(50,74,94); fill-rule: nonzero; opacity: 1;" transform=" translate(-208, -323)" d="M 184.8 312.8 c 4 12 12.8 20.4 23.2 20.4 s 19.2 -8.4 23.2 -20.4 H 184.8 z" stroke-linecap="round"/>
</g>
		<g transform="matrix(1.5748 0 0 1.5748 0 172.9134)" id="Layer_1">
<path style="stroke: none; stroke-width: 1; stroke-dasharray: none; stroke-linecap: butt; stroke-dashoffset: 0; stroke-linejoin: miter; stroke-miterlimit: 4; is-custom-font: none; font-file-url: none; fill: rgb(50,74,94); fill-rule: nonzero; opacity: 1;" transform=" translate(-254, -363.8)" d="M 230.8 353.6 c 4 12 12.8 20.4 23.2 20.4 s 19.2 -8.4 23.2 -20.4 H 230.8 z" stroke-linecap="round"/>
</g>
		<g transform="matrix(1.5748 0 0 1.5748 36.5354 140.7874)" id="Layer_1">
<path style="stroke: none; stroke-width: 1; stroke-dasharray: none; stroke-linecap: butt; stroke-dashoffset: 0; stroke-linejoin: miter; stroke-miterlimit: 4; is-custom-font: none; font-file-url: none; fill: rgb(50,74,94); fill-rule: nonzero; opacity: 1;" transform=" translate(-277.2, -343.4)" d="M 254 333.2 c 4 12 12.8 20.4 23.2 20.4 s 19.2 -8.4 23.2 -20.4 H 254 z" stroke-linecap="round"/>
</g>
		<g transform="matrix(1.5748 0 0 1.5748 -35.9055 140.7874)" id="Layer_1">
<path style="stroke: none; stroke-width: 1; stroke-dasharray: none; stroke-linecap: butt; stroke-dashoffset: 0; stroke-linejoin: miter; stroke-miterlimit: 4; is-custom-font: none; font-file-url: none; fill: rgb(50,74,94); fill-rule: nonzero; opacity: 1;" transform=" translate(-231.2, -343.4)" d="M 208 333.2 c 4 12 12.8 20.4 23.2 20.4 s 19.2 -8.4 23.2 -20.4 H 208 z" stroke-linecap="round"/>
</g>
		<g transform="matrix(1.5748 0 0 1.5748 82.8345 -258.0996)" id="Layer_1">
<path style="stroke: none; stroke-width: 1; stroke-dasharray: none; stroke-linecap: butt; stroke-dashoffset: 0; stroke-linejoin: miter; stroke-miterlimit: 4; is-custom-font: none; font-file-url: none; fill: rgb(50,74,94); fill-rule: nonzero; opacity: 1;" transform=" translate(-306.6, -90.1068)" d="M 309.2 87.6 C 288.4 94 268 97.2 250 96.8 c 16.4 19.2 43.2 27.6 68.4 19.6 c 25.6 -8 42.4 -30.4 44.8 -55.6 C 348 72 330 81.2 309.2 87.6 z" stroke-linecap="round"/>
</g>
		<g transform="matrix(1.5748 0 0 1.5748 -82.8348 -258.0996)" id="Layer_1">
<path style="stroke: none; stroke-width: 1; stroke-dasharray: none; stroke-linecap: butt; stroke-dashoffset: 0; stroke-linejoin: miter; stroke-miterlimit: 4; is-custom-font: none; font-file-url: none; fill: rgb(50,74,94); fill-rule: nonzero; opacity: 1;" transform=" translate(-201.4, -90.1068)" d="M 198.8 87.6 c 20.8 6.4 41.2 9.6 59.2 9.2 c -16.4 19.2 -43.2 27.6 -68.4 19.6 c -25.6 -8 -42.4 -30.4 -44.8 -55.6 C 160 72 178 81.2 198.8 87.6 z" stroke-linecap="round"/>
</g>
		<g transform="matrix(1.5748 0 0 1.5748 52.9133 264.2519)" id="Layer_1">
<path style="stroke: none; stroke-width: 1; stroke-dasharray: none; stroke-linecap: butt; stroke-dashoffset: 0; stroke-linejoin: miter; stroke-miterlimit: 4; is-custom-font: none; font-file-url: none; fill: rgb(255,255,255); fill-rule: nonzero; opacity: 1;" transform=" translate(-287.6, -421.8)" d="M 287.6 447.2 L 287.6 447.2 c 8 0 14.8 -6.8 14.8 -14.8 v -21.2 c 0 -8 -6.8 -14.8 -14.8 -14.8 l 0 0 c -8 0 -14.8 6.8 -14.8 14.8 v 21.2 C 272.8 440.4 279.6 447.2 287.6 447.2 z" stroke-linecap="round"/>
</g>
		<g transform="matrix(1.5748 0 0 1.5748 -52.9135 264.2519)" id="Layer_1">
<path style="stroke: none; stroke-width: 1; stroke-dasharray: none; stroke-linecap: butt; stroke-dashoffset: 0; stroke-linejoin: miter; stroke-miterlimit: 4; is-custom-font: none; font-file-url: none; fill: rgb(255,255,255); fill-rule: nonzero; opacity: 1;" transform=" translate(-220.4, -421.8)" d="M 220.4 447.2 L 220.4 447.2 c 8 0 14.8 -6.8 14.8 -14.8 v -21.2 c 0 -8 -6.8 -14.8 -14.8 -14.8 l 0 0 c -8 0 -14.8 6.8 -14.8 14.8 v 21.2 C 205.6 440.4 212 447.2 220.4 447.2 z" stroke-linecap="round"/>
</g>
</g>
</g>
<g transform="matrix(1 0 0 1 501.3675 906.7773)" style="" id="438385">
		
<path xml:space="preserve" font-family="Amatic SC" font-size="250" font-style="normal" font-weight="bold" style="stroke: none; stroke-width: 1; stroke-dasharray: none; stroke-linecap: butt; stroke-dashoffset: 0; stroke-linejoin: miter; stroke-miterlimit: 4; is-custom-font: none; font-file-url: none; fill: rgb(124,58,237); fill-rule: nonzero; opacity: 1; white-space: pre;" d="M-370.38 85.03Q-372.88 85.03-374.38 82.53Q-375.88 80.03-375.88 75.28L-375.88 75.28L-376.13 38.28Q-376.38 33.53-376.38 22.53L-376.38 22.53Q-376.88-0.72-376.88-29.97L-376.88-29.97L-376.88-42.72Q-379.13-30.72-384.63-8.97L-384.63-8.97Q-390.13 13.53-392.38 28.03L-392.38 28.03L-392.38 29.53L-393.13 34.28Q-393.63 39.78-395.63 45.53L-395.63 45.53Q-398.13 51.53-403.38 51.53L-403.38 51.53Q-412.38 51.53-412.38 28.03L-412.38 28.03Q-412.38 15.03-415 0.16Q-417.63-14.72-423.38-36.47L-423.38-36.47L-430.88-64.47L-431.38-34.47Q-431.38-20.97-430.13 17.03L-430.13 17.03L-429.63 34.03L-429.13 68.28Q-429.13 73.53-432.88 77.78L-432.88 77.78Q-439.13 77.78-441.50 73.91Q-443.88 70.03-443.88 62.53L-443.88 62.53L-443.38 42.03Q-442.63 28.53-442.63 21.78L-442.63 21.78L-443.13-26.47L-443.63-74.97Q-443.63-85.72-443.13-107.22L-443.13-107.22L-436.38-111.22Q-434.38-110.97-432.38-108.34Q-430.38-105.72-427.88-99.97L-427.88-99.97Q-421.63-84.47-411.63-37.97L-411.63-37.97Q-410.13-31.47-409.63-27.22L-409.63-27.22Q-406.63-12.72-405.38-5.22L-405.38-5.22L-401.63 14.03L-399.88 5.78L-395.13-14.72Q-391.13-32.72-388.50-46.22Q-385.88-59.72-383.38-75.47L-383.38-75.47Q-380.63-94.22-379.88-106.72L-379.88-106.72L-379.88-108.22Q-379.38-111.47-376.88-113.34Q-374.38-115.22-370.88-115.22L-370.88-115.22Q-368.63-115.22-366.88-113.22Q-365.13-111.22-365.13-108.97L-365.13-108.97Q-365.13-78.97-362.88-19.22L-362.88-19.22Q-361.63 10.03-361.13 38.03L-361.13 38.03Q-360.63 50.78-360.63 70.28L-360.63 70.28Q-360.63 76.03-363.63 80.53Q-366.63 85.03-370.38 85.03L-370.38 85.03ZM-313.38 78.28Q-334.88 78.28-334.88 70.78L-334.88 70.78Q-334.88 64.78-327.38 64.78L-327.38 64.78L-324.38 64.78Q-323.38 65.03-322.13 65.03L-322.13 65.03Q-320.13 65.03-319.25 63.78Q-318.38 62.53-318.38 59.28L-318.38 59.28Q-318.38 38.03-320.88 1.28L-320.88 1.28Q-323.13-36.97-323.13-56.47L-323.13-56.47Q-323.13-63.47-322.88-69.22L-322.88-69.22L-322.63-81.97Q-322.63-90.22-323.38-95.72L-323.38-95.72Q-326.13-94.72-329.13-94.72L-329.13-94.72Q-334.88-94.72-334.88-100.72L-334.88-100.72Q-334.88-103.72-331.25-105.97Q-327.63-108.22-321.88-109.22L-321.88-109.22Q-311.38-110.97-304.13-110.97L-304.13-110.97Q-301.13-110.97-299-108.97Q-296.88-106.97-296.88-104.22L-296.88-104.22Q-296.88-101.47-298.50-99.47Q-300.13-97.47-302.63-97.47L-302.63-97.47Q-304.13-97.47-305.13-97.72L-305.13-97.72L-307.13-97.72Q-309.63-97.72-310.75-96.59Q-311.88-95.47-311.88-92.47L-311.88-92.47Q-311.88-65.97-308.63-19.47L-308.63-19.47Q-305.63 29.28-305.63 53.78L-305.63 53.78L-305.63 63.28Q-303.88 63.03-300.63 63.03L-300.63 63.03Q-290.13 63.03-290.13 71.78L-290.13 71.78L-290.13 73.28L-296.38 77.53Q-296.63 77.53-297.88 77.66Q-299.13 77.78-302.88 77.78L-302.88 77.78Q-311.38 78.28-313.38 78.28L-313.38 78.28ZM-224.88 85.03Q-238.63 85.03-247.63 76.78L-247.63 76.78Q-254.88 70.78-260.88 56.28L-260.88 56.28Q-264.63 46.78-266.88 29.53L-266.88 29.53Q-268.63 15.53-268.63 3.03L-268.63 3.03Q-268.88-0.22-268.88-8.22L-268.88-8.22L-268.88-16.72L-268.88-26.72Q-268.88-37.47-268.13-52.47L-268.13-52.47Q-267.13-65.22-264.13-78.47L-264.13-78.47Q-260.88-91.47-254.63-100.47L-254.63-100.47Q-248.38-109.97-237.88-113.97L-237.88-113.97Q-231.63-115.72-226.13-115.72L-226.13-115.72Q-215.63-115.72-215.63-108.72L-215.63-108.72Q-215.63-105.97-217.50-104.34Q-219.38-102.72-222.38-102.72L-222.38-102.72Q-223.38-102.72-225.88-103.47L-225.88-103.47L-229.38-103.97Q-234.13-103.97-237.88-101.09Q-241.63-98.22-244.13-92.72L-244.13-92.72Q-249.88-80.72-251.88-66.47L-251.88-66.47Q-254.63-48.97-254.88-35.97L-254.88-35.97Q-255.38-24.72-255.38-12.22L-255.38-12.22L-255.38-5.47Q-255.63-1.97-255.63 3.28L-255.63 3.28Q-255.63 16.03-254.38 28.28L-254.38 28.28Q-253.38 42.78-248.88 53.28L-248.88 53.28Q-244.88 65.03-235.88 69.78L-235.88 69.78Q-231.63 72.28-225.38 72.28L-225.38 72.28Q-214.38 72.28-206.88 61.78L-206.88 61.78Q-207.13 53.03-208.13 44.66Q-209.13 36.28-211.13 33.28L-211.13 33.28Q-211.38 33.28-212.25 33.41Q-213.13 33.53-214.88 33.78L-214.88 33.78L-220.88 34.28Q-229.38 34.28-229.38 27.03L-229.38 27.03Q-229.38 24.78-226.88 23.03Q-224.38 21.28-220.13 20.53L-220.13 20.53Q-213.13 18.78-207.63 18.78L-207.63 18.78Q-202.63 18.78-199.88 22.53Q-197.13 26.28-197.13 32.03L-197.13 32.03Q-197.13 40.28-194.63 54.53L-194.63 54.53Q-192.13 68.53-192.13 76.78L-192.13 76.78Q-192.13 79.53-193.88 81.53Q-195.63 83.53-198.13 83.53L-198.13 83.53Q-204.38 83.53-206.63 78.28L-206.63 78.28L-206.63 78.03L-212.13 80.78Q-219.63 85.03-224.88 85.03L-224.88 85.03ZM-128.38 82.28Q-131.63 82.28-133.25 79.91Q-134.88 77.53-134.88 74.03L-134.88 74.03Q-134.88 21.78-136.88-14.22L-136.88-14.22Q-142.88-15.22-145.38-15.22L-145.38-15.22Q-155.63-15.22-160.13-13.47L-160.13-13.47Q-160.13 0.53-157.88 28.78L-157.88 28.78Q-155.88 58.78-155.88 71.28L-155.88 71.28Q-155.88 73.78-157.38 75.91Q-158.88 78.03-161.13 78.03L-161.13 78.03Q-164.38 78.03-167.13 66.53L-167.13 66.53Q-171.13 49.53-173.63-4.72L-173.63-4.72Q-175.38-41.47-175.38-83.72L-175.38-83.72Q-175.63-91.47-175.63-105.72L-175.63-105.72Q-175.63-110.22-171.38-110.22L-171.38-110.22Q-168.88-110.22-166.25-108.97Q-163.63-107.72-162.38-106.22L-162.38-106.22Q-163.38-98.22-163.38-87.47L-163.38-87.47Q-163.38-76.97-162.38-61.97L-162.38-61.97Q-161.63-44.72-161.63-35.97L-161.63-35.97L-161.63-31.47Q-161.88-29.47-161.88-26.72L-161.88-26.72Q-161.88-24.22-161.38-20.22L-161.38-20.22Q-159.88-20.22-156.38-20.47Q-152.88-20.72-149.38-21.22L-149.38-21.22Q-141.13-21.97-137.13-21.97L-137.13-21.97Q-137.13-43.72-137.63-62.22L-137.63-62.22L-138.13-103.97L-138.13-110.72Q-134.88-110.72-132.38-109.59Q-129.88-108.47-128.63-106.72L-128.63-106.72Q-126.38-103.97-125.88-97.22L-125.88-97.22L-125.88-91.47Q-125.88-69.97-123.38-9.22L-123.38-9.22Q-121.13 45.78-121.13 73.28L-121.13 73.28Q-121.13 76.78-123.25 79.53Q-125.38 82.28-128.38 82.28L-128.38 82.28ZM-70.88 80.28Q-74.63 80.28-76.75 76.66Q-78.88 73.03-78.88 67.78L-78.88 67.78Q-78.88 59.53-77.88 47.53L-77.88 47.53L-77.38 41.03L-76.88 27.78Q-76.88 19.03-78.63-11.22L-78.63-11.22Q-80.38-41.47-80.38-50.22L-80.38-50.22Q-80.38-50.97-80.25-53.09Q-80.13-55.22-80.13-59.72L-80.13-59.72Q-79.88-64.72-79.88-71.97L-79.88-71.97Q-79.88-90.22-82.38-95.22L-82.38-95.22Q-83.88-95.22-88.88-94.47L-88.88-94.47L-95.88-93.97Q-99.13-93.97-101.63-95.84Q-104.13-97.72-104.13-100.72L-104.13-100.72Q-104.13-103.72-98.13-105.97L-98.13-105.97Q-89.38-108.97-68.38-110.22L-68.38-110.22Q-59.88-110.72-58.13-110.72L-58.13-110.72Q-55.13-110.72-52.63-108.72Q-50.13-106.72-50.13-103.72L-50.13-103.72Q-50.13-100.72-52.25-98.84Q-54.38-96.97-57.63-96.97L-57.63-96.97L-62.13-97.22Q-64.13-97.47-66.63-97.47L-66.63-97.47L-69.13-97.47Q-67.38-80.47-67.38-66.72L-67.38-66.72L-67.63-50.72Q-67.88-43.47-67.88-34.47L-67.88-34.47Q-67.88-22.47-66.88-5.72L-66.88-5.72Q-65.63 15.03-65.63 23.03L-65.63 23.03Q-65.63 32.53-64.63 45.53L-64.63 45.53Q-63.63 58.78-63.63 68.03L-63.63 68.03Q-63.63 80.28-70.88 80.28L-70.88 80.28ZM-6.38 81.53Q-8.88 81.53-10.75 79.78Q-12.63 78.03-12.63 75.53L-12.63 75.53L-12.13 51.28Q-11.38 35.03-11.38 27.03L-11.38 27.03Q-11.38 19.78-13.63 5.53L-13.63 5.53Q-16.13-8.47-16.13-16.22L-16.13-16.22Q-16.13-25.72-18.88-37.97Q-21.63-50.22-25.88-61.47L-25.88-61.47Q-29.88-72.22-32.63-84.59Q-35.38-96.97-35.38-106.22L-35.38-106.22Q-35.38-107.97-33.38-109.22Q-31.38-110.47-29.13-110.47L-29.13-110.47Q-26.38-110.47-23.88-104.72L-23.88-104.72Q-20.88-98.22-18.13-86.47Q-15.38-74.72-14.88-72.47L-14.88-72.47L-11.63-55.22L-9.13-44.22Q-8.38-48.22-7.88-54.72L-7.88-54.72Q-6.38-75.47-4.13-89.22L-4.13-89.22Q-2.38-98.72-0.13-103.72L-0.13-103.72Q2.38-109.22 5.88-109.22L5.88-109.22Q12.63-109.22 12.63-106.72L12.63-106.72Q12.63-92.47 6.63-64.72L6.63-64.72Q0.63-36.97 0.63-22.47L0.63-22.47L0.13-18.47Q-0.38-14.72-0.13-13.97L-0.13-13.97L-0.13-9.97Q-0.13 0.78 0.63 23.03L0.63 23.03L1.13 56.28L1.63 62.03L2.13 68.03L2.13 74.28Q2.13 77.28-0.38 79.41Q-2.88 81.53-6.38 81.53L-6.38 81.53ZM116.63 82.78Q113.13 82.78 110.88 80.03L110.88 80.03Q104.38 53.03 93.13-17.72L93.13-17.72Q80.63-93.22 77.88-107.47L77.88-107.47Q78.88-112.22 84.63-112.22L84.63-112.22Q88.88-112.22 95.13-80.22L95.13-80.22Q101.63-47.97 107.88-7.22L107.88-7.22L114.63 37.03Q118.63 7.03 120.88-7.97L120.88-7.97Q125.63-42.47 127.88-65.09Q130.13-87.72 130.13-107.97L130.13-107.97Q133.88-112.97 139.13-112.97L139.13-112.97L144.38-110.22L140.63-76.47Q139.38-60.97 134.38-20.22L134.38-20.22L132.13-3.72Q129.38 18.28 126.63 37.78L126.63 37.78Q122.88 66.03 119.63 77.03L119.63 77.03Q118.13 82.78 116.63 82.78L116.63 82.78ZM189.63 80.03Q184.88 80.03 181.38 78.78L181.38 78.78Q177.13 77.53 177.13 71.78L177.13 71.78L177.13-73.47Q177.13-77.72 175.63-86.22L175.63-86.22Q173.88-93.97 173.88-98.97L173.88-98.97L173.88-99.72Q178.13-106.72 180.13-108.72L180.13-108.72Q183.63-108.72 189.38-109.72L189.38-109.72Q194.63-110.72 198.63-110.72L198.63-110.72Q202.63-110.72 206.38-108.34Q210.13-105.97 210.13-102.72L210.13-102.72Q210.13-95.22 198.63-95.22L198.63-95.22L195.13-95.22Q193.63-95.47 191.63-95.47L191.63-95.47Q189.38-95.47 188.88-95.22L188.88-95.22Q188.88-86.72 189.88-74.72L189.88-74.72L190.38-67.72L190.88-53.97Q190.88-49.22 190.13-39.47L190.13-39.47L189.63-25.47L193.13-26.22Q198.13-27.72 201.38-27.72L201.38-27.72Q204.13-27.72 206.38-25.59Q208.63-23.47 208.63-20.72L208.63-20.72Q208.63-17.72 206.75-15.34Q204.88-12.97 202.13-12.97L202.13-12.97L199.13-13.22L195.88-13.22Q192.13-13.22 190.63-11.47L190.63-11.47L190.63 65.78L204.63 65.03Q218.88 65.03 218.88 71.53L218.88 71.53L218.88 72.53Q217.38 75.53 213.38 77.41Q209.38 79.28 205.63 79.78L205.63 79.78L197.38 80.03L189.63 80.03ZM291.13 81.03Q286.38 81.03 281.88 74.28L281.88 74.28L281.88 73.53Q281.13 60.28 277.38 44.03Q273.63 27.78 266.38 4.78L266.38 4.78Q260.88-12.47 257.13-26.22L257.13-26.22L257.13 72.28Q257.13 76.28 255.75 78.16Q254.38 80.03 250.38 80.03L250.38 80.03Q247.38 80.03 245.63 78.16Q243.88 76.28 243.88 73.28L243.88 73.28L243.88 71.28L244.38-2.22Q244.88-34.72 244.88-75.47L244.88-75.47L244.88-106.22Q244.88-109.22 246.13-110.34Q247.38-111.47 251.38-111.47L251.38-111.47Q257.63-111.47 262.88-109.09Q268.13-106.72 271.88-102.47L271.88-102.47Q279.63-93.72 281.88-81.47L281.88-81.47Q282.88-76.47 282.88-69.97L282.88-69.97Q282.88-66.22 282.25-61.72Q281.63-57.22 281.38-55.97L281.38-55.97Q280.88-53.47 279.13-48.47Q277.38-43.47 276.88-41.97L276.88-41.97L273.88-34.97L271.38-28.47Q271.63-19.47 274.50-5.72Q277.38 8.03 280.88 19.78L280.88 19.78Q283.38 28.03 289.88 47.28L289.88 47.28L297.13 69.28L297.13 69.78Q297.13 74.03 296.38 77.03L296.38 77.03Q295.63 81.03 291.13 81.03L291.13 81.03ZM256.63-37.47Q260.13-40.97 265.13-47.22L265.13-47.22L268.88-68.72Q269.13-69.97 269.13-72.22L269.13-72.22Q269.13-79.47 266.38-88.97L266.38-88.97Q264.88-93.47 262.50-96.59Q260.13-99.72 257.63-99.97L257.63-99.97L257.13-74.97Q256.38-58.22 256.38-48.97L256.38-48.97Q256.38-40.22 256.63-37.47L256.63-37.47ZM328.88 80.53Q317.38 80.53 317.38 74.28L317.38 74.28L317.88 43.53L318.38 12.78Q318.38-3.97 317.63-37.97L317.63-37.97Q316.88-71.72 316.88-88.72L316.88-88.72L316.88-90.22Q316.88-96.72 318.13-102.22L318.13-102.22Q319.63-108.97 326.13-108.97L326.13-108.97Q343.63-108.97 353.88-97.72Q364.13-86.47 364.13-67.97L364.13-67.97Q364.13-56.72 358.13-44.47Q352.13-32.22 343.88-26.22L343.88-26.22Q358.38-16.47 365.25-1.09Q372.13 14.28 372.13 32.78L372.13 32.78Q372.13 41.53 366.13 54.53L366.13 54.53Q358.88 70.03 346.38 76.78L346.38 76.78Q338.88 80.53 329.88 80.53L329.88 80.53L328.88 80.53ZM331.38-29.97Q337.88-31.47 342.38-40.72L342.38-40.72Q346.13-47.72 349.38-57.72L349.38-57.72Q350.13-60.47 351.88-64.72L351.88-64.72L351.88-73.47Q351.88-80.97 346.38-87.97Q340.88-94.97 333.88-94.97L333.88-94.97Q330.38-94.97 330.38-87.22L330.38-87.22Q330.38-70.72 330.88-57.72L330.88-57.72L331.38-29.97ZM332.38 67.53Q344.63 65.78 351.88 56.28Q359.13 46.78 359.13 33.53L359.13 33.53Q359.13 22.03 357.25 12.41Q355.38 2.78 352.38-2.22L352.38-2.22Q349.63-6.97 346.88-10.22Q344.13-13.47 342.13-14.47L342.13-14.47L340.13-15.22L331.13-15.22Q332.38 13.53 332.38 67.53L332.38 67.53ZM409.88 84.03Q400.88 84.03 394.38 80.78L394.38 80.78Q390.38 78.53 390.38 75.53L390.38 75.53Q390.38 72.53 391.88 70.66Q393.38 68.78 396.13 68.78L396.13 68.78Q398.63 68.78 403.38 70.78L403.38 70.78Q408.63 72.78 409.88 72.78L409.88 72.78Q414.63 72.78 418.50 68.66Q422.38 64.53 424.63 57.78L424.63 57.78Q429.13 45.28 429.13 35.28L429.13 35.28Q429.13 24.53 425.75 12.66Q422.38 0.78 416.63-10.47L416.63-10.47L412.63-18.47Q406.38-30.97 403-38.22Q399.63-45.47 397.13-53.97L397.13-53.97Q393.38-65.97 393.38-77.22L393.38-77.22Q393.38-86.22 396.50-94.22Q399.63-102.22 405.88-107.72L405.88-107.72Q412.13-113.72 421.38-113.72L421.38-113.72Q425.88-113.72 430.13-111.09Q434.38-108.47 436.13-104.47L436.13-104.47L431.88-99.22Q425.38-99.22 422.13-101.72L422.13-101.72Q417.63-101.22 414.25-97.34Q410.88-93.47 409.13-88.47L409.13-88.47Q407.63-83.72 407.63-78.97L407.63-78.97Q407.63-69.47 410.25-59.59Q412.88-49.72 417.13-40.97L417.13-40.97L434.63-5.97Q438.88 3.03 441.38 14.28Q443.88 25.53 443.88 36.78L443.88 36.78Q443.88 53.28 435.88 67.78L435.88 67.78Q431.63 75.28 424.88 79.66Q418.13 84.03 409.88 84.03L409.88 84.03Z"/></g>
</svg>