<?xml version='1.0' encoding='utf-8'?>
<svg xmlns="http://www.w3.org/2000/svg" width="271.21506mm" height="357.82275mm" viewBox="0 0 271.21506 357.82275" version="1.1" id="svg5" xml:space="preserve">
  <defs id="defs2"/>
  <g id="layer1">
    <path style="fill:#A020F0;stroke-width:1" d="m 165.41599999999926 356.84259999999995 c -5.903,-1.45 -10.539,-1.834 -16.906,-1.402 -17.716,1.202 -25.042,1.133 -33.964,-0.32 -3.519,-0.573 -5.372,-0.652 -16.602,-0.709 -15.478,-0.08 -24.308,-0.724 -33.813,-2.474 -9.534,-1.754 -16.483,-3.981 -20.509,-6.572 -4.975,-3.202 -6.761,-3.741 -13.423,-4.055 -7.705,-0.363 -12.506,-1.066 -17.091,-2.504 -3.075,-0.965 -4.436,-1.657 -5.954,-3.027 -1.503,-1.359 -1.584,-2.392 -0.299,-3.856 l 0.906,-1.031 -0.76,-0.714 c -1.104,-1.037 -2.202,-3.506 -2.553,-5.738 -0.167,-1.069 -0.376,-2.015 -0.462,-2.101 -0.08,-0.09 -0.705,0.206 -1.375,0.65 -0.67,0.443 -1.34,0.806 -1.49,0.806 -0.572,0 -1.111,-2.983 -1.101,-6.093 0,-3.582 0.459,-5.337 2.149,-8.413 l 1.025,-1.865 -1.253,-0.168 c -1.847,-0.248 -2.212,-0.738 -1.774,-2.381 1.383,-5.197 6.042,-9.281 12.499,-10.954 2.12,-0.55 3.057,-0.624 6.192,-0.486 2.031,0.09 4.138,0.255 4.683,0.369 0.982,0.206 0.99,0.197 0.997,-0.969 0,-0.648 0.194,-2.068 0.425,-3.157 0.229,-1.089 0.365,-2.037 0.299,-2.106 -0.07,-0.07 -0.469,0.03 -0.896,0.229 -0.428,0.194 -0.901,0.354 -1.053,0.354 -0.486,0 -0.911,-2.21 -0.912,-4.743 0,-2.702 0.545,-4.941 1.782,-7.29 0.441,-0.837 0.848,-1.624 0.904,-1.748 0.06,-0.125 -0.318,-0.142 -0.831,-0.04 -1.247,0.249 -1.366,-0.156 -0.943,-3.236 0.517,-3.778 2.423,-8.889 4.858,-13.025 l 0.942,-1.599 h -1.53 -1.529 v -1.904 c 0,-3.825 1.455,-7.941 4.677,-13.304 1.111,-1.851 2.02,-3.421 2.02,-3.489 0,-0.07 -0.552,-0.345 -1.228,-0.615 -0.676,-0.27 -1.309,-0.701 -1.407,-0.957 -0.378,-0.984 2.659,-6.685 4.694,-8.809 l 0.862,-0.9 -1.232,-0.623 c -1.887,-0.953 -1.83,-1.802 0.327,-4.979 0.968,-1.426 2.768,-3.58 3.999,-4.787 l 2.238,-2.194 -0.935,-0.387 c -0.514,-0.213 -1.004,-0.5 -1.089,-0.639 -0.485,-0.784 1.706,-3.666 4.585,-6.03 0.671,-0.55 0.964,-0.919 0.653,-0.82 -0.741,0.237 -2.765,-0.317 -3.237,-0.885 -0.769,-0.928 1.775,-3.7 5.9,-6.426 l 1.793,-1.185 -1.488,-0.663 -1.488,-0.663 1.711,-1.627 c 0.94,-0.895 2.966,-2.371 4.502,-3.28 l 2.791,-1.653 -0.846,-0.384 c -1.4,-0.634 -2.33,-1.52 -2.134,-2.032 0.256,-0.665 3.43,-2.477 7.531,-4.3 1.926,-0.857 3.778,-1.72 4.113,-1.919 0.603,-0.358 0.604,-0.364 0.01,-0.802 -0.573,-0.423 -0.528,-0.514 1.146,-2.322 0.958,-1.035 1.951,-2.288 2.208,-2.784 0.424,-0.819 0.421,-0.949 -0.03,-1.401 -0.672,-0.673 -0.381,-3.046 0.8,-6.526 1.078,-3.174 1.085,-3.315 0.165,-3.315 -0.587,0 -0.756,-0.191 -0.876,-0.99 -0.229,-1.52 0.237,-4.165 1.089,-6.177 l 0.769,-1.819 -0.658,-0.165 c -0.362,-0.09 -0.837,-0.503 -1.056,-0.914 -0.555,-1.044 -0.303,-4.893 0.46,-7.015 l 0.611,-1.698 -0.644,-0.282 c -1.36,-0.597 -1.224,-6.409 0.265,-11.385 0.422,-1.408 0.767,-2.645 0.767,-2.747 0,-0.103 -0.373,-0.182 -0.83,-0.175 -1.046,0.01 -1.216,-0.649 -1.266,-4.911 -0.03,-2.893 0.309,-4.754 1.321,-7.165 0.172,-0.411 0.01,-0.531 -0.8,-0.609 l -1.015,-0.1 0.06,-1.983 c 0.03,-1.141 0.374,-2.91 0.799,-4.165 l 0.738,-2.182 -0.709,-0.178 c -0.523,-0.131 -0.766,-0.47 -0.918,-1.282 -0.313,-1.67 0.09,-5.347 0.783,-7.1 0.749,-1.9 0.748,-1.844 0.03,-1.844 -0.316,0 -0.659,-0.216 -0.761,-0.481 -0.558,-1.455 0.184,-6.09 1.337,-8.35 0.768,-1.505 0.773,-1.466 -0.227,-1.582 -0.722,-0.08 -0.85,-0.249 -0.93,-1.198 -0.128,-1.532 0.666,-4.742 1.779,-7.193 0.932,-2.055 0.934,-2.063 0.31,-2.48 -0.345,-0.23 -0.626,-0.641 -0.626,-0.914 0,-0.762 1.731,-4.246 2.747,-5.529 0.5,-0.631 0.909,-1.234 0.909,-1.34 0,-0.108 -0.48,-0.616 -1.067,-1.13 -1.232,-1.082 -1.284,-1.41 -0.466,-2.9455 0.331,-0.6195 1.11,-2.3601 1.733,-3.868 1.452,-3.5167 2.787,-5.7888 4.597,-7.8215 2.864,-3.2158 2.687,-2.5613 1.511,-5.6246 -1.892,-4.9233 -2.197,-6.6798 -2.19,-12.5985 0,-4.0152 0.145,-5.9678 0.568,-7.9119 2.591,-11.9454 10.17,-23.0537 18.681,-27.3808 1.542,-0.7847 3.764,-0.8538 4.949,-0.1538 1.826,1.0784 2.188,2.8738 1.497,7.4218 -0.34,2.2371 -0.321,2.3795 0.907,6.8538 1.176,4.2836 2.482,10.8745 2.482,12.5195 0,0.9368 0.17,0.9199 1.829,-0.1826 1.545,-1.0275 2.299,-1.1329 3.075,-0.43 0.495,0.4473 0.657,0.3909 2.166,-0.748 2.027,-1.5302 4.514,-2.6729 6.412,-2.9472 1.763,-0.2544 2.152,0.015 2.664,1.8465 0.211,0.7507 0.423,1.3649 0.472,1.3649 0.05,0 1.115,-0.5528 2.367,-1.2285 2.371,-1.2785 6.179,-2.2947 7.427,-1.9813 0.763,0.191 0.887,0.8498 0.402,2.1238 -0.344,0.9043 -0.41,0.8937 1.972,0.3184 2.187,-0.5278 4.442,-0.5697 6.532,-0.1215 1.799,0.3858 1.975,0.5768 1.495,1.6291 -0.197,0.4322 -0.27,0.8733 -0.163,0.9802 0.103,0.1071 1.301,0.3536 2.652,0.548 l 2.46,0.3536 1.432,-1.6916 c 0.788,-0.9305 2.697,-3.0341 4.242,-4.6747 6.394,-6.7865 8.473,-10.7118 9.386,-17.7126 0.265,-2.0253 1.689,-3.5214 3.352,-3.5214 2.971,0 7.147,3.6803 9.423,8.3037 2.096,4.2588 2.666,6.8174 2.697,12.1055 0.05,7.9274 -1.91,14.6603 -6.265,21.5567 -0.67,1.0602 -1.168,1.9692 -1.105,2.02 0.06,0.051 1.003,0.5584 2.091,1.1279 2.308,1.2067 5.597,4.2192 4.875,4.4649 -1.148,0.3904 -1.095,0.6958 0.387,2.2323 1.58,1.6392 3.141,4.5572 2.846,5.3229 -0.09,0.248 -0.587,0.5338 -1.094,0.6351 -0.506,0.1013 -0.921,0.3085 -0.921,0.4605 0,0.152 0.768,1.3716 1.705,2.7102 0.94,1.3396 1.632,2.6285 1.54,2.8668 -0.19,0.497 -3.284,1.5095 -5.529,1.8099 -0.838,0.112 -1.902,0.278 -2.364,0.369 l -0.841,0.166 0.664,0.932 c 0.852,1.196 2.067,4.146 2.077,5.039 0,0.818 -1.44,1.808 -3.039,2.077 -1.959,0.331 -2.035,0.383 -1.899,1.302 l 0.127,0.864 7.206,0.186 c 7.399,0.191 13.003,0.625 15.095,1.169 l 1.185,0.308 -0.172,2.674 c -0.223,3.424 -0.754,4.728 -2.172,5.32 -1.333,0.557 -2.071,1.731 -2.755,4.384 -1.183,4.585 -2.962,10.252 -3.794,12.087 -1.863,4.107 -3.731,5.877 -7.743,7.337 -1.821,0.663 -1.878,0.717 -1.817,1.705 0.209,3.333 0.207,7.538 0,8.287 -0.181,0.649 -0.385,0.832 -0.81,0.721 -0.462,-0.121 -0.634,0.114 -0.921,1.263 -0.465,1.855 -2.214,5.815 -2.571,5.822 -0.154,0 -0.498,-0.191 -0.764,-0.431 -0.427,-0.387 -0.632,-0.257 -1.802,1.143 -2.198,2.629 -7.314,6.965 -7.97,6.756 -0.463,-0.147 -0.584,0 -0.663,0.824 -0.09,0.958 -0.199,1.038 -2.297,1.712 -2.137,0.687 -2.188,0.727 -1.775,1.371 0.838,1.301 1.691,4.467 1.691,6.271 0,2.015 -0.349,2.49 -1.24,1.684 -0.835,-0.755 -0.937,-0.47 -0.395,1.097 0.76,2.195 1.33,5.661 1.33,8.087 v 2.258 h -1.066 c -0.586,0 -1.064,0.03 -1.062,0.08 0,0.04 0.347,1.173 0.765,2.513 0.866,2.781 1.339,7.254 0.802,7.586 -0.187,0.116 -0.628,0.06 -0.982,-0.133 -0.352,-0.189 -0.718,-0.266 -0.813,-0.172 -0.09,0.09 0.292,1.371 0.859,2.837 0.879,2.273 1.031,3.048 1.035,5.26 0,2.717 -0.08,2.852 -1.412,2.302 -0.455,-0.187 -0.468,-0.1 -0.128,0.89 0.207,0.604 0.503,1.204 0.657,1.335 0.153,0.131 1.513,0.693 3.021,1.249 4.747,1.752 10.763,5.148 10.338,5.836 -0.115,0.18 -0.768,0.568 -1.459,0.861 l -1.255,0.533 2.585,0.853 c 3.141,1.037 6.661,2.758 6.897,3.372 0.09,0.247 0,0.657 -0.209,0.91 -0.473,0.57 -0.52,0.528 1.654,1.488 0.989,0.436 2.278,1.089 2.864,1.451 l 1.065,0.659 -0.791,0.68 -0.791,0.681 2.827,1.687 c 3.579,2.135 3.836,2.424 2.782,3.116 -1.011,0.662 -0.775,0.874 1.67,1.502 1.09,0.28 2.447,0.704 3.019,0.942 l 1.039,0.434 -0.667,0.709 -0.667,0.71 2.522,1.134 c 3.601,1.621 8.188,4.773 11.284,7.755 1.468,1.414 2.716,2.515 2.773,2.447 0.06,-0.07 0.412,-1.144 0.785,-2.392 0.812,-2.709 2.609,-6.382 4.547,-9.29 3.727,-5.594 11.611,-12.271 20.905,-17.704 2.607,-1.524 15.811,-7.967 16.691,-8.144 0.246,-0.05 0.837,1.406 2.443,6.025 0.06,0.164 1.631,-0.419 3.499,-1.295 1.867,-0.875 3.533,-1.592 3.702,-1.592 0.169,0 0.391,0.377 0.492,0.838 0.103,0.46 0.359,1.386 0.572,2.056 0.363,1.141 0.456,1.214 1.47,1.154 1.072,-0.06 1.084,-0.05 1.282,1.386 0.302,2.201 0.509,2.391 1.762,1.616 1.355,-0.837 1.413,-0.829 1.793,0.261 0.379,1.087 0.633,1.123 1.842,0.261 0.995,-0.708 0.997,-0.706 1.931,1.018 0.245,0.453 0.445,1.017 0.445,1.254 0,0.237 -2.482,5.213 -5.517,11.057 -11.132,21.44 -14.249,27.504 -14.338,27.895 -0.05,0.22 0.206,0.879 0.567,1.466 1.535,2.485 2.844,7.295 2.835,10.42 -0.01,5.725 -3.408,11.488 -8.225,13.973 -1.775,0.916 -2.237,1.02 -4.565,1.03 -1.423,0.01 -2.964,-0.105 -3.424,-0.249 -0.835,-0.261 -0.838,-0.255 -3.807,5.788 -2.603,5.297 -3.094,6.102 -3.949,6.478 -1.78,0.784 -1.454,1.146 1.231,1.369 1.367,0.114 3.299,0.416 4.293,0.673 1.841,0.476 4.743,1.795 4.743,2.155 0,0.109 -0.22,0.441 -0.487,0.737 -0.653,0.721 -0.3,1.186 0.898,1.186 2.96,0 6.938,1.716 9.511,4.104 1.925,1.785 1.923,1.764 0.27,2.759 -0.455,0.274 -0.349,0.429 0.811,1.195 0.734,0.483 1.903,1.354 2.599,1.933 1.614,1.345 4.487,5.109 4.224,5.534 -0.104,0.178 -0.739,0.598 -1.398,0.934 -0.658,0.336 -1.197,0.669 -1.197,0.74 0,0.07 0.552,1.01 1.227,2.086 1.559,2.486 2.455,5.01 2.662,7.492 l 0.161,1.951 -0.995,-0.199 c -0.924,-0.185 -0.979,-0.151 -0.786,0.486 0.884,2.912 1.116,4.302 1.171,7.019 0.07,3.369 0.118,3.285 -1.683,2.809 l -0.833,-0.22 0.617,1.783 c 0.339,0.981 0.714,2.734 0.833,3.896 l 0.215,2.114 2.893,1.092 c 7.274,2.745 11.29,6.305 10.529,9.335 -1.523,6.067 -27.116,11.208 -53.325,10.711 -9.358,-0.178 -15.761,0.153 -19.34,0.999 -1.86,0.44 -4.057,1.355 -7.761,3.232 -3.087,1.564 -6.827,3.173 -9.291,3.997 -3.88,1.298 -4.349,1.385 -7.931,1.473 -3.487,0.09 -4.168,0 -8.073,-0.953 z m 7.892,-9.363 c 0.118,-2.388 0.241,-4.807 0.273,-5.376 0.06,-1.025 0.05,-1.04 -1.92,-1.594 -2.716,-0.766 -6.305,-2.583 -6.901,-3.492 -0.713,-1.088 -0.322,-1.207 1.004,-0.306 1.249,0.849 4.868,2.147 7.183,2.576 l 1.438,0.266 1.081,-1.388 c 1.384,-1.776 3.448,-3.24 5.185,-3.678 0.752,-0.189 1.367,-0.427 1.367,-0.529 0,-0.498 -2.897,-4.153 -4.267,-5.385 -4.129,-3.713 -10.382,-3.839 -14.331,-0.289 -2.429,2.184 -3.511,4.106 -7.198,12.798 -0.115,0.265 0.182,0.381 0.969,0.381 0.957,0 1.099,0.08 0.916,0.533 -0.119,0.293 -0.481,1.287 -0.804,2.208 -0.324,0.921 -0.923,2.182 -1.334,2.803 -0.41,0.62 -0.646,1.189 -0.523,1.264 0.293,0.181 15.787,3.319 17.312,3.507 0.223,0.03 0.409,-1.425 0.55,-4.299 z m -38.409,3.731 h 1.264 l -1.161,-0.788 c -0.639,-0.434 -1.098,-0.852 -1.022,-0.928 0.08,-0.08 0.771,0.02 1.544,0.215 2.78,0.7 15.423,-0.09 15.423,-0.968 0,-0.15 -0.179,-0.272 -0.398,-0.272 -0.861,0 -3.455,-1.566 -4.247,-2.565 l -0.836,-1.055 1.41,0.623 c 1.844,0.816 5.157,0.701 6.394,-0.223 1.088,-0.812 1.028,-1.162 -0.233,-1.367 -1.668,-0.271 -1.929,-0.548 -1.235,-1.309 0.825,-0.904 1.603,-2.511 1.341,-2.774 -0.118,-0.12 -0.694,-0.418 -1.278,-0.662 -0.841,-0.353 -0.967,-0.503 -0.609,-0.73 0.249,-0.157 0.676,-0.288 0.949,-0.29 0.648,-0.01 2.3,-1.692 3.013,-3.074 l 0.561,-1.089 -1.046,-0.378 c -1.186,-0.429 -1.333,-0.815 -0.419,-1.105 0.705,-0.223 4.554,-3.725 4.554,-4.142 0,-0.148 -0.405,-0.269 -0.897,-0.269 -0.493,0 -0.98,-0.138 -1.084,-0.305 -0.103,-0.168 -0.03,-0.305 0.149,-0.305 0.185,0 1.074,-0.471 1.975,-1.048 1.848,-1.182 4.752,-2.718 6.061,-3.207 3.073,-1.148 7.844,-0.94 10.638,0.464 0.816,0.41 1.544,0.745 1.616,0.745 0.07,0 -0.219,-0.696 -0.651,-1.546 -0.431,-0.851 -1.779,-2.558 -2.995,-3.794 l -2.211,-2.248 1.695,-0.09 1.695,-0.09 -1.414,-0.847 c -0.777,-0.466 -2.473,-1.234 -3.769,-1.706 -1.949,-0.711 -2.231,-0.893 -1.633,-1.053 0.399,-0.106 1.169,-0.196 1.714,-0.198 0.544,0 0.99,-0.137 0.99,-0.299 0,-0.568 -3.267,-2.753 -6.087,-4.072 l -2.849,-1.331 1.422,-0.543 c 1.522,-0.582 1.736,-0.876 0.889,-1.222 -3.134,-1.274 -7.03,-2.59 -8.186,-2.763 -1.37,-0.206 -1.4,-0.231 -0.697,-0.59 0.404,-0.206 1.248,-0.467 1.876,-0.581 0.629,-0.114 1.142,-0.315 1.142,-0.449 0,-0.386 -4.537,-2.388 -6.592,-2.91 -1.029,-0.261 -2.632,-0.475 -3.562,-0.475 -1.938,0 -2.379,-0.342 -1.183,-0.92 0.79,-0.382 0.711,-0.42 -1.761,-0.818 -3.226,-0.52 -9.041,-0.336 -10.937,0.347 -0.738,0.266 -1.402,0.424 -1.475,0.351 -0.07,-0.07 0.435,-0.747 1.128,-1.499 l 1.26,-1.366 -0.852,-0.17 c -3.1,-0.619 -7.851,-0.865 -13.493,-0.7 -5.894,0.172 -8.64,0.454 -15.57,1.602 -1.611,0.267 -3.256,0.434 -3.655,0.372 -0.656,-0.102 -0.579,-0.209 0.783,-1.095 4.865,-3.164 12.944,-4.581 24.077,-4.224 7.785,0.249 10.115,0.722 24.808,5.028 7.352,2.154 12.438,4.616 12.051,5.833 -0.143,0.451 0.08,0.714 0.974,1.173 0.637,0.325 1.98,1.214 2.986,1.974 3.19,2.414 3.391,2.611 2.959,2.893 -0.283,0.184 0.426,1.059 2.53,3.124 1.607,1.578 3.052,2.915 3.21,2.971 0.474,0.167 0.324,0.66 -0.201,0.66 -0.369,0 -0.271,0.247 0.395,1.006 0.486,0.554 1.196,1.513 1.58,2.132 0.382,0.62 0.766,1.126 0.855,1.126 0.833,0 4.769,-4.347 5.613,-6.199 0.449,-0.984 0.753,-0.816 1.011,0.56 0.115,0.589 0.313,1.07 0.45,1.07 0.138,0 0.674,-0.948 1.193,-2.107 0.766,-1.714 1.049,-2.079 1.518,-1.956 0.411,0.107 0.761,-0.14 1.217,-0.86 l 0.639,-1.01 -2.584,-0.373 c -4.24,-0.612 -8.137,-2.897 -8.562,-5.019 -0.09,-0.473 -0.205,-0.86 -0.246,-0.86 -1.594,0 -12.616,-2.617 -18.469,-4.385 -1.906,-0.576 -9.016,-2.642 -15.802,-4.591 -12.678,-3.644 -20.908,-6.15 -27.911,-8.502 -2.199,-0.739 -4.412,-1.434 -4.919,-1.545 -1.276,-0.28 -1.846,-2.386 -0.741,-2.737 0.596,-0.189 1.357,-2.1 4.315,-10.834 l 1.805,-5.33 -7.826,-0.19 c -8.522,-0.207 -13.992,-0.837 -19.592,-2.257 -5.704,-1.446 -11.135,-4.066 -14.019,-6.764 l -1.419,-1.326 -0.278,0.836 -0.279,0.835 -1.603,-2.116 c -1.887,-2.491 -3.306,-5.334 -4.555,-9.123 -0.992,-3.007 -1.521,-5.68 -1.026,-5.179 0.164,0.168 0.87,1.744 1.568,3.504 1.308,3.3 3.594,7.615 4.035,7.615 0.138,0 0.251,-0.617 0.251,-1.371 0,-0.754 0.104,-1.361 0.228,-1.349 0.126,0.01 0.786,0.868 1.467,1.903 4.884,7.43 18.224,11.75 36.686,11.881 5.619,0.04 16.81,-0.527 17.973,-0.911 0.311,-0.102 0.104,-0.334 -0.658,-0.728 -1.433,-0.742 -2.388,-1.966 -2.388,-3.058 0,-1.251 0.708,-1.494 3.523,-1.212 3.363,0.338 3.658,0.09 1.866,-1.552 -1.812,-1.664 -2.643,-2.912 -2.646,-3.973 0,-1.56 1.878,-1.885 4.73,-0.819 0.938,0.352 1.788,0.558 1.887,0.459 0.277,-0.277 -0.497,-2.587 -1.286,-3.837 -0.946,-1.498 -1.979,-2.327 -5.054,-4.052 -2.662,-1.495 -8.961,-6.544 -13.184,-10.569 -3.066,-2.921 -5.9,-6.693 -7.786,-10.36 -2.031,-3.947 -4.594,-11.38 -3.744,-10.854 0.168,0.103 1.948,2.622 3.957,5.597 4.459,6.605 7.207,10.173 10.159,13.19 2.274,2.325 8.089,7.298 8.533,7.298 0.133,0 2.104,-5.657 4.38,-12.572 2.276,-6.914 4.238,-12.734 4.361,-12.932 0.164,-0.265 0.742,-0.288 2.172,-0.08 1.071,0.151 2.06,0.206 2.199,0.121 0.137,-0.08 0.26,-0.524 0.271,-0.975 0.05,-1.592 0.401,-2.039 1.559,-1.939 l 1.064,0.09 0.911,-2.532 0.91,-2.533 2.87,0.05 c 3.145,0.06 13.116,1.264 18.482,2.23 1.871,0.337 5.523,1.16 8.116,1.829 6.676,1.723 7.251,1.621 4.225,-0.754 -2.499,-1.962 -4.987,-3.203 -7.968,-3.975 l -2.598,-0.673 1.792,-0.879 c 0.986,-0.483 1.782,-1.016 1.771,-1.183 -0.05,-0.561 -2.847,-1.376 -5.974,-1.735 l -3.096,-0.354 2.117,-0.979 2.119,-0.979 -2.576,-0.815 c -3.318,-1.049 -5.955,-1.669 -7.296,-1.715 -0.87,-0.03 -0.525,-0.212 1.878,-0.994 1.62,-0.527 3.034,-1.047 3.142,-1.156 0.104,-0.108 -1.148,-0.641 -2.792,-1.184 -3.674,-1.214 -5.318,-2.022 -7.298,-3.588 -1.359,-1.074 -3.459,-3.721 -3.459,-4.359 0,-0.13 0.583,0.03 1.294,0.35 1.258,0.571 2.362,0.774 2.362,0.434 0,-0.09 -0.502,-0.948 -1.116,-1.903 -1.008,-1.57 -2.54,-4.959 -2.54,-5.618 0,-0.145 0.445,0.07 0.989,0.478 1.331,0.996 2.985,1.815 3.211,1.589 0.286,-0.286 -1.088,-5.989 -1.959,-8.135 -0.432,-1.062 -1.076,-2.342 -1.431,-2.845 l -0.648,-0.914 0.909,0.582 c 0.5,0.32 1.386,0.903 1.97,1.295 0.583,0.391 1.167,0.712 1.297,0.712 0.651,0 -1.276,-8.842 -2.689,-12.337 -0.169,-0.419 0.238,-0.204 1.303,0.686 0.852,0.712 1.633,1.294 1.735,1.294 0.659,0 -0.469,-5.537 -1.666,-8.176 -0.489,-1.078 -0.888,-2.13 -0.888,-2.337 0,-0.452 1.474,-0.793 2.391,-0.553 0.373,0.1 0.654,0.03 0.654,-0.16 0,-0.592 -1.481,-3.7 -1.763,-3.7 -0.151,0 -1.083,0.279 -2.073,0.621 -0.989,0.341 -2.791,0.769 -4.005,0.95 -2.102,0.315 -2.196,0.363 -2.024,1.048 l 0.18,0.718 -2.544,-0.164 c -1.399,-0.09 -2.784,-0.211 -3.078,-0.269 -0.619,-0.122 -0.689,0.168 -0.167,0.69 0.554,0.554 -1.005,0.471 -4.524,-0.24 -3.729,-0.754 -3.962,-0.764 -3.451,-0.148 0.212,0.255 0.332,0.511 0.266,0.568 -0.07,0.06 -1.354,-0.07 -2.861,-0.274 -1.508,-0.207 -4.044,-0.546 -5.636,-0.754 -1.592,-0.207 -3.701,-0.628 -4.688,-0.934 -1.755,-0.544 -1.804,-0.543 -2.284,0.03 -0.483,0.577 -0.524,0.575 -2.512,-0.129 -1.112,-0.394 -2.342,-0.94 -2.733,-1.214 -0.726,-0.508 -1.634,-0.684 -1.394,-0.27 0.07,0.126 0.05,0.463 -0.06,0.749 -0.16,0.437 -0.58,0.232 -2.627,-1.282 -1.342,-0.991 -2.524,-1.808 -2.631,-1.815 -0.104,-0.01 -0.265,0.262 -0.352,0.597 -0.09,0.335 -0.288,0.609 -0.447,0.609 -0.495,0 -4.231,-2.966 -5.043,-4.002 l -0.773,-0.988 -0.536,1.124 c -0.294,0.618 -0.636,1.124 -0.758,1.124 -0.265,0 -3.22,-3.377 -4.215,-4.818 l -0.699,-1.01 -0.704,0.662 c -0.387,0.363 -0.855,0.567 -1.039,0.453 -0.186,-0.114 -0.956,-1.442 -1.713,-2.95 -1.131,-2.249 -1.456,-2.679 -1.806,-2.388 -0.345,0.286 -0.515,0.141 -0.894,-0.766 -0.257,-0.615 -0.627,-1.65 -0.821,-2.299 -0.362,-1.204 -0.873,-1.351 -0.873,-0.251 0,0.36 -0.135,0.526 -0.33,0.405 -0.916,-0.565 -2.411,-5.944 -2.411,-8.67 0,-1.421 -0.06,-1.542 -0.609,-1.366 -0.579,0.183 -0.61,0.06 -0.61,-2.533 0,-2.523 -0.05,-2.74 -0.646,-2.896 -0.571,-0.149 -0.621,-0.305 -0.42,-1.33 0.124,-0.639 0.314,-2.361 0.423,-3.827 0.181,-2.455 0.06,-3.14 -0.423,-2.36 -0.104,0.167 -0.337,0.304 -0.519,0.304 -0.71,0 0,-4.386 1.457,-8.986 0.795,-2.513 1.887,-6.146 2.426,-8.072 0.973,-3.483 0.983,-3.503 1.853,-3.413 1.053,0.11 12.896,-0.947 18.847,-1.681 3.255,-0.401 6.61,-0.524 14.166,-0.52 9.363,0 10.139,0.05 14.327,0.809 5.586,1.014 7.695,1.785 9.307,3.403 0.685,0.687 1.373,1.485 1.53,1.773 0.264,0.485 0.409,0.49 1.953,0.07 1.172,-0.322 2.773,-0.433 5.375,-0.371 l 3.707,0.09 1.098,-1.439 c 1.985,-2.6 4.098,-3.404 11.434,-4.353 2.092,-0.27 3.851,-0.541 3.912,-0.601 0.06,-0.06 -0.07,-0.498 -0.298,-0.971 -0.256,-0.539 -1.025,-1.173 -2.055,-1.695 -0.905,-0.459 -1.728,-0.917 -1.827,-1.019 -0.104,-0.101 0.675,-0.138 1.722,-0.08 1.651,0.09 1.904,0.03 1.904,-0.428 0,-0.645 0.552,-0.672 1.352,-0.07 0.326,0.246 0.678,0.447 0.783,0.447 0.456,0 2.493,-2.094 2.315,-2.381 -0.103,-0.175 -1.318,-0.681 -2.689,-1.125 -2.754,-0.891 -4.229,-1.814 -5.494,-3.438 -0.826,-1.0601 -0.916,-1.6594 -0.159,-1.0595 0.756,0.5985 4.488,1.6525 5.13,1.4485 0.614,-0.195 0.617,-0.221 0.08,-0.586 -0.309,-0.21 -1.434,-0.6733 -2.502,-1.0299 -2.389,-0.7974 -3.86,-1.8808 -4.087,-3.0073 -0.09,-0.4695 -0.66,-1.402 -1.259,-2.0721 l -1.086,-1.2185 0.633,1.5231 c 0.349,0.8377 0.811,2.4431 1.028,3.5675 l 0.393,2.0442 -1.105,-0.4703 c -4.415,-1.8813 -5.091,-2.0158 -4.788,-0.953 0.63,2.2123 0.615,2.2823 -0.625,2.9143 -2.74,1.398 -7.695,1.528 -12.85,0.337 -3.079,-0.711 -3.12,-0.711 -2.254,0.01 0.425,0.355 0.568,0.654 0.37,0.777 -0.178,0.109 -2.271,0.214 -4.652,0.233 -4.717,0.04 -7.145,-0.409 -9.584,-1.761 -0.713,-0.394 -1.296,-0.675 -1.296,-0.623 0,0.05 0.219,0.618 0.487,1.258 0.395,0.945 0.423,1.381 0.146,2.304 l -0.341,1.138 -1.593,-0.462 c -2.258,-0.656 -4.639,-1.772 -6.856,-3.214 -1.052,-0.684 -1.956,-1.191 -2.006,-1.126 -0.06,0.07 -0.554,0.798 -1.117,1.629 -3.399,5.025 -7.424,7.285 -13.774,7.732 -1.634,0.115 -2.969,0.146 -2.969,0.07 0,-0.08 0.358,-0.515 0.796,-0.973 1.133,-1.182 1.218,-3.622 0.281,-8.035 l -0.194,-0.9133 0.603,1.0663 c 0.333,0.586 0.698,1.614 0.813,2.284 0.115,0.671 0.267,1.32 0.34,1.444 0.225,0.379 1.508,-0.641 1.917,-1.524 l 0.387,-0.833 0.26,0.688 c 0.245,0.642 -0.02,2.892 -0.485,4.087 -0.223,0.575 0.09,0.544 2.744,-0.277 3.261,-1.006 5.774,-2.839 6.889,-5.023 l 0.599,-1.176 -1.397,-1.5867 c -1.776,-2.0158 -3.173,-4.9171 -3.614,-7.5008 -0.232,-1.3568 -0.67,-2.5108 -1.338,-3.5176 -1.668,-2.5142 -1.95,-4.8619 -0.827,-6.8651 0.417,-0.743 0.429,-0.7282 0.441,0.6092 0.01,1.6183 1.365,4.2024 2.713,5.1991 0.78,0.5767 0.89,0.8706 1.024,2.7522 0.195,2.725 1.517,5.4836 3.506,7.3169 l 1.447,1.3334 0.09,-1.393 0.09,-1.393 2.042,2.0026 c 1.217,1.1934 2.921,2.4638 4.218,3.1448 1.198,0.628 2.251,1.142 2.342,1.142 0.09,0 -0.231,-1.172 -0.716,-2.603 -0.484,-1.4316 -0.814,-2.7741 -0.733,-2.9834 0.09,-0.2443 0.634,0.074 1.51,0.8894 1.055,0.9829 2.01,1.4843 4.224,2.2185 3.998,1.3255 8.297,1.9135 9.309,1.2735 0.386,-0.244 0.381,-0.354 -0.05,-0.8329 -0.268,-0.3034 -0.582,-0.9968 -0.697,-1.5408 -0.233,-1.0914 -0.412,-1.0938 2.059,0.028 2.669,1.2101 4.807,1.5503 9.811,1.5607 2.68,0 5.268,-0.1002 5.751,-0.2338 l 0.876,-0.244 -0.725,-0.7892 c -0.398,-0.4342 -1.546,-1.4087 -2.552,-2.1657 -1.005,-0.757 -1.553,-1.268 -1.218,-1.1355 0.335,0.1325 2.19,0.3292 4.12,0.437 2.949,0.1644 3.665,0.3048 4.465,0.8739 0.524,0.373 1.019,0.6781 1.101,0.6781 0.08,0 0,-0.5793 -0.177,-1.2875 -0.416,-1.6371 -2.677,-3.9533 -4.868,-4.9856 l -1.595,-0.7511 1.848,0.1273 c 1.414,0.098 2.538,0.463 4.78,1.5537 2.559,1.2446 3.054,1.6153 3.886,2.9124 0.852,1.3281 1.105,1.5113 2.379,1.7215 1.762,0.2911 8.128,0.2873 9.278,0 l 0.849,-0.2157 -1.437,-1.6641 c -1.8,-2.0841 -3.23,-3.083 -5.492,-3.8347 l -1.774,-0.5895 2.523,0.1094 c 1.389,0.06 3.164,-0.053 3.946,-0.252 l 1.422,-0.3609 -1.343,-0.9719 c -0.736,-0.5344 -2.264,-1.4119 -3.394,-1.95 -1.129,-0.5382 -2.06,-1.0743 -2.071,-1.1915 0,-0.1172 0.806,-0.3749 1.811,-0.5727 1.005,-0.1978 1.827,-0.4818 1.827,-0.6312 0,-0.3725 -3.471,-2.5875 -4.681,-2.9868 -0.54,-0.1783 -1.783,-0.4256 -2.763,-0.5494 l -1.78,-0.2253 2.023,-1.1824 c 1.113,-0.6503 2.024,-1.2796 2.024,-1.3986 0,-0.3683 -2.809,-1.7577 -4.57,-2.2604 -0.922,-0.2631 -2.769,-0.661 -4.106,-0.8843 l -2.431,-0.4058 1.67,-0.7922 c 0.917,-0.4357 2.347,-0.885 3.177,-0.9984 l 1.51,-0.2061 -0.748,-0.567 c -1.321,-1.0028 -3.55,-1.3552 -8.576,-1.3561 -2.63,-6e-4 -4.687,-0.091 -4.569,-0.2019 0.117,-0.1105 1.281,-0.646 2.587,-1.1901 1.307,-0.5444 2.257,-1.1058 2.115,-1.2486 -0.467,-0.4663 -3.831,-1.5323 -6.164,-1.9533 -2.773,-0.5 -7.179,-0.5496 -9.57,-0.1082 -0.968,0.1792 -1.812,0.2739 -1.875,0.2106 -0.07,-0.063 0.421,-0.9295 1.077,-1.9248 1.172,-1.7765 1.181,-1.8114 0.492,-1.9021 -1.223,-0.1609 -4.653,0.8008 -8.427,2.3627 -2.006,0.8307 -3.554,1.3451 -3.437,1.1431 0.116,-0.2021 0.957,-1.4375 1.87,-2.7455 0.912,-1.3081 1.597,-2.4404 1.521,-2.5164 -0.431,-0.4315 -7.351,2.9168 -10.188,4.9296 -1.035,0.7347 -1.951,1.3358 -2.035,1.3358 -0.08,0 0.315,-1.3947 0.89,-3.0992 0.573,-1.7047 0.978,-3.1637 0.9,-3.2426 -0.211,-0.2098 -2.882,0.8507 -4.117,1.6347 -1.296,0.8227 -2.992,2.4264 -5.136,4.8594 -0.9,1.0204 -1.544,1.5585 -1.459,1.2184 0.08,-0.335 0.247,-1.4737 0.361,-2.5303 l 0.206,-1.921 -1.666,0.8549 -1.666,0.8549 -0.796,3.6554 c -1.03,4.7292 -2.554,7.8262 -5.265,10.6925 -1.092,1.1558 -1.892,1.8272 -1.777,1.4921 0.115,-0.335 0.757,-2.0485 1.429,-3.8077 2.263,-5.9322 2.763,-8.381 2.795,-13.7077 0.03,-5.4593 -0.535,-8.8628 -2.557,-15.3371 -1.316,-4.2121 -1.493,-6.0624 -0.875,-9.141 0.192,-0.9534 0.265,-1.8174 0.162,-1.9201 -0.374,-0.3734 -4.377,2.5379 -6.765,4.9191 -4.925,4.9113 -8.74,12.132 -10.385,19.6514 -0.436,1.9971 -0.559,3.7733 -0.538,7.7677 0.03,6.3597 0.642,9.011 3.477,15.1293 3.376,7.2846 3.976,8.8168 3.319,8.4646 -0.318,-0.1699 -1.642,-1.5482 -2.942,-3.0627 l -2.363,-2.7538 -0.854,1.0113 c -1.246,1.477 -2.916,4.0445 -3.429,5.273 l -0.447,1.0692 1.451,0.011 1.45,0.012 -0.913,0.7989 c -1.095,0.9566 -4.112,4.6846 -4.112,5.0806 0,0.156 0.739,0.202 1.68,0.106 1.246,-0.129 1.623,-0.08 1.461,0.185 -0.12,0.198 -1.001,1.418 -1.958,2.711 -1.72,2.324 -3.48,5.658 -3.158,5.98 0.09,0.09 0.71,0.02 1.375,-0.156 0.664,-0.178 1.209,-0.271 1.209,-0.207 0,0.06 -0.366,0.696 -0.814,1.405 -0.888,1.404 -2.176,4.14 -3.124,6.632 l -0.602,1.585 0.975,-0.164 c 0.537,-0.09 1.231,-0.265 1.544,-0.388 0.484,-0.191 0.524,-0.138 0.269,0.355 -0.554,1.069 -2.514,7.033 -2.78,8.459 -0.29,1.553 -0.115,1.694 1.182,0.954 1.436,-0.822 1.469,-0.502 0.275,2.745 -1.122,3.05 -1.792,5.984 -1.796,7.866 v 0.864 l 1.401,-0.783 c 1.148,-0.642 1.361,-0.688 1.175,-0.255 -0.392,0.917 -1.903,6.862 -2.126,8.371 l -0.214,1.444 1.386,-0.775 1.386,-0.775 -1.06,3.9 c -1.01,3.711 -1.762,9.84 -1.208,9.84 0.122,0 0.781,-0.583 1.466,-1.295 l 1.244,-1.295 -0.213,1.82 c -0.117,1.001 -0.546,3.267 -0.953,5.034 -0.807,3.505 -1.489,8.702 -1.201,9.167 0.104,0.16 0.7,-0.12 1.336,-0.623 l 1.154,-0.915 -0.245,1.288 c -0.135,0.708 -0.664,2.998 -1.178,5.088 -0.892,3.634 -1.164,5.795 -0.731,5.795 0.115,0 0.807,-0.355 1.548,-0.788 0.74,-0.434 1.392,-0.742 1.449,-0.684 0.06,0.06 -0.647,2.345 -1.564,5.085 -0.917,2.74 -1.626,5.236 -1.575,5.546 0.09,0.521 0.233,0.496 1.921,-0.33 1.005,-0.492 1.853,-0.898 1.884,-0.902 0.03,0 -0.432,1.051 -1.03,2.344 -1.927,4.171 -3.606,9.836 -2.914,9.833 0.128,0 0.681,-0.275 1.23,-0.609 0.548,-0.335 1.076,-0.609 1.174,-0.609 0.759,0 -2.368,6.357 -4.223,8.585 l -1.506,1.81 1.169,-0.21 c 1.519,-0.272 3.129,-0.935 3.866,-1.591 1.235,-1.1 -0.312,1.258 -1.682,2.562 -1.768,1.684 -3.461,2.601 -7.155,3.879 -1.702,0.589 -3.758,1.41 -4.57,1.825 l -1.474,0.755 0.913,0.364 c 0.504,0.2 1.806,0.678 2.895,1.061 3.128,1.1 3.153,1.114 2.69,1.407 -0.223,0.142 -1.091,0.265 -1.929,0.273 -0.837,0.01 -2.21,0.252 -3.05,0.542 -1.795,0.621 -6.545,3.674 -6.545,4.207 0,0.262 0.831,0.368 2.878,0.368 1.583,0 3.037,0.1 3.232,0.219 0.206,0.128 -0.295,0.446 -1.203,0.767 -2.458,0.865 -7.133,3.843 -10.375,6.609 l -1.05,0.896 3.224,0.165 c 1.774,0.09 3.467,0.3 3.761,0.465 0.457,0.256 0.361,0.357 -0.65,0.68 -1.997,0.638 -4.356,2.127 -6.399,4.039 -1.071,1.001 -1.947,1.961 -1.947,2.132 0,0.303 1.312,0.208 3.61,-0.261 0.92,-0.188 0.555,0.26 -3.657,4.481 -4.515,4.524 -6.65,7.081 -6.25,7.482 0.172,0.171 3.803,-0.471 5.634,-0.996 0.548,-0.158 0.351,0.167 -0.875,1.437 -2.601,2.698 -7.905,10.067 -7.905,10.984 0,0.324 2.973,-0.615 4.675,-1.478 0.812,-0.411 1.518,-0.704 1.566,-0.651 0.05,0.05 -1.279,2.016 -2.953,4.361 -1.673,2.346 -3.606,5.224 -4.297,6.397 -1.396,2.376 -3.224,7.391 -3.244,8.903 -0.01,0.951 0.01,0.972 0.826,0.646 0.46,-0.185 1.798,-0.641 2.973,-1.013 l 2.136,-0.676 -2.184,3.307 c -1.202,1.818 -2.806,4.779 -3.566,6.579 -1.45,3.437 -3.127,8.822 -2.835,9.113 0.09,0.09 1.204,-0.452 2.469,-1.213 1.266,-0.76 2.298,-1.29 2.295,-1.177 0,0.113 -0.792,1.644 -1.755,3.404 -0.962,1.759 -2.117,4.021 -2.565,5.026 -0.816,1.828 -2.012,7.013 -1.692,7.333 0.09,0.09 1.163,-0.253 2.377,-0.769 1.215,-0.517 2.252,-0.896 2.306,-0.842 0.06,0.05 -0.297,1.119 -0.78,2.366 -1.192,3.076 -1.871,6.497 -2.07,10.417 -0.166,3.286 0,3.828 0.842,2.809 0.799,-0.963 3.429,-3.005 3.116,-2.42 -0.831,1.556 -2.363,14.159 -1.72,14.155 0.149,0 0.575,-0.447 0.947,-0.99 0.804,-1.175 3.45,-3.971 3.608,-3.812 0.06,0.06 -0.08,0.731 -0.303,1.488 -0.649,2.156 -0.864,5.68 -0.491,8.037 0.333,2.103 1.578,6.27 2.139,7.157 0.34,0.538 0.707,0.146 2.066,-2.206 0.459,-0.796 0.918,-1.447 1.02,-1.447 0.103,0 0.266,0.856 0.365,1.903 0.389,4.096 2.439,9.65 4.811,13.031 1.221,1.741 1.794,2.048 1.801,0.964 0,-1.174 3.42,-7.094 3.845,-6.669 0.07,0.07 -0.104,0.655 -0.379,1.309 -1.072,2.559 0.122,8.944 2.101,11.232 l 1.012,1.171 0.561,-1.495 c 0.309,-0.822 0.966,-2.305 1.46,-3.295 l 0.898,-1.801 0.853,2.023 c 1.858,4.404 4.97,7.139 9.73,8.551 2.174,0.645 2.377,0.621 1.635,-0.195 -0.344,-0.377 -0.788,-1.001 -0.987,-1.386 l -0.362,-0.702 1.285,0.656 c 2.176,1.11 6.821,2.68 9.943,3.362 4.01,0.875 15.035,1.101 23.689,0.485 l 6.093,-0.433 3.35,1.611 c 3.067,1.473 6.081,2.576 7.044,2.576 0.253,0 0.132,-0.442 -0.356,-1.295 -1.019,-1.783 -0.987,-2.195 0.129,-1.618 1.452,0.75 4.627,1.879 6.891,2.449 2.066,0.52 7.503,1.091 8.326,0.875 0.223,-0.06 0.975,-0.106 1.67,-0.106 z m -54.153,-271.696 c -0.104,-0.174 -0.545,-1.655 -0.973,-3.291 -1.019,-3.9 -0.88,-5.759 0.664,-8.8 1.215,-2.393 2.081,-3.4193 2.42,-2.8695 0.115,0.1822 -0.05,1.0479 -0.35,1.9237 -0.41,1.1738 -0.556,2.4878 -0.556,5.0038 0,3.933 0.196,4.36 1.657,3.604 l 0.965,-0.499 -0.47,0.854 c -2.032,3.69 -2.926,4.773 -3.357,4.074 z m 8.37,-24.9077 c -1.106,-1.401 -3.271,-6.1455 -4.146,-9.0784 -0.693,-2.3246 -0.839,-3.4827 -0.961,-7.6154 -0.158,-5.3574 0.206,-8.1736 1.65,-12.7554 1.36,-4.3142 4.836,-10.3688 5.846,-10.1826 0.347,0.064 0.986,1.5227 2.107,4.8136 4.221,12.3923 3.856,17.6657 -2.217,32.1276 -0.772,1.8378 -1.449,3.3871 -1.504,3.443 -0.06,0.055 -0.406,-0.2828 -0.775,-0.7524 z m 91.683,295.8887 c 2.023,-0.967 2.53,-2.489 2.564,-7.69 0.02,-4.242 -0.189,-4.998 -1.431,-4.998 -0.342,0 -1.199,0.338 -1.903,0.751 -2.006,1.175 -2.366,2.251 -2.523,7.538 -0.07,2.464 -0.05,4.695 0.05,4.957 0.222,0.577 1.232,0.403 3.242,-0.558 z m 4.835,-8.423 c 0.05,-3.03 -0.225,-4.569 -0.798,-4.569 -0.325,0 -0.396,0.192 -0.252,0.685 0.115,0.377 0.29,2.33 0.401,4.341 0.215,3.925 0.589,3.661 0.649,-0.457 z m 55.067,-4.801 c 0.03,-2.012 0.428,-4.293 1.186,-6.94 0.143,-0.496 -0.128,-0.819 -1.344,-1.607 -2.403,-1.558 -5.178,-4.929 -4.056,-4.929 0.136,0 0.651,0.424 1.143,0.942 1.349,1.421 3.001,2.67 4.187,3.165 1.037,0.434 1.091,0.42 2.388,-0.614 1.867,-1.49 4.228,-2.309 7.215,-2.503 l 2.538,-0.165 -0.196,-1.098 c -0.323,-1.807 -1.826,-4.721 -3.049,-5.907 -2.255,-2.191 -5.323,-3.071 -9.111,-2.615 -2.657,0.32 -4.534,1.339 -6.776,3.676 -2.236,2.331 -4.041,5.062 -6.203,9.384 -0.881,1.759 -2.002,3.782 -2.493,4.497 -0.845,1.23 -0.864,1.326 -0.366,1.827 0.439,0.441 13.634,5.169 14.588,5.227 0.174,0.01 0.324,-0.986 0.349,-2.34 z m 7.746,1.255 c 0.31,-0.312 0.784,-1.43 1.054,-2.486 0.511,-2.002 0.765,-7.146 0.373,-7.544 -0.362,-0.366 -2.676,0.457 -3.444,1.226 -1.384,1.384 -2.577,8.049 -1.642,9.175 0.545,0.656 2.873,0.42 3.659,-0.371 z m -33.227,-0.592 c 3.368,-0.594 5.283,-1.227 5.953,-1.967 0.529,-0.585 0.509,-0.597 -1.013,-0.597 -1.743,0 -2.355,-0.44 -0.991,-0.713 0.492,-0.1 1.397,-0.389 2.013,-0.647 0.907,-0.379 1.052,-0.549 0.766,-0.895 -0.196,-0.235 -0.239,-0.475 -0.09,-0.533 0.375,-0.152 2.771,-3.252 3.289,-4.254 0.436,-0.844 0.43,-0.852 -0.933,-1.455 -0.754,-0.334 -1.371,-0.741 -1.371,-0.905 0,-0.164 0.474,-0.455 1.054,-0.646 0.581,-0.192 1.821,-0.915 2.756,-1.608 l 1.7,-1.26 -1.211,-0.357 c -0.667,-0.197 -1.56,-0.632 -1.986,-0.967 l -0.775,-0.609 1.896,0.01 c 2.041,0.01 3.818,-0.673 4.935,-1.908 0.601,-0.665 0.601,-0.666 -0.152,-1.266 -0.866,-0.689 -1.182,-0.364 2.697,-2.785 3.788,-2.363 5.13,-2.771 9.191,-2.793 4.178,-0.02 5.834,0.411 9.138,2.397 1.688,1.015 2.31,1.259 2.381,0.936 0.06,-0.241 -0.129,-1.642 -0.404,-3.114 -0.669,-3.574 -1.922,-5.826 -4.258,-7.649 l -0.907,-0.709 0.908,0.212 c 0.5,0.117 1.705,0.526 2.678,0.909 l 1.77,0.698 -0.197,-0.962 c -0.342,-1.665 -2.044,-4.218 -4.342,-6.514 l -2.218,-2.216 h 2.294 c 1.262,0 2.295,-0.121 2.295,-0.269 0,-0.149 -0.895,-1.107 -1.988,-2.13 -1.452,-1.358 -2.911,-2.314 -5.4,-3.538 -1.875,-0.923 -3.653,-1.678 -3.951,-1.678 -0.297,0 -0.541,-0.122 -0.541,-0.272 0,-0.325 0.777,-0.526 3.122,-0.807 0.964,-0.115 1.752,-0.328 1.752,-0.472 0,-1.117 -7.323,-3.647 -11.576,-4 l -1.066,-0.09 1.295,-0.69 c 0.712,-0.379 1.294,-0.817 1.294,-0.973 0,-0.998 -6.961,-1.535 -10.465,-0.809 -1.316,0.273 -2.545,0.496 -2.73,0.496 -0.185,0 0.335,-0.682 1.156,-1.516 0.822,-0.834 1.407,-1.604 1.3,-1.71 -0.257,-0.257 -4.835,2.93 -10.625,7.398 -2.574,1.986 -6.051,4.636 -7.726,5.888 l -3.046,2.278 -2.031,5.116 c -1.118,2.814 -2.19,5.308 -2.383,5.541 -0.194,0.233 -1.271,0.785 -2.396,1.225 -1.915,0.752 -2.1,0.911 -2.948,2.531 -0.923,1.764 -3.341,4.945 -5.563,7.317 -0.889,0.949 -1.399,1.271 -1.805,1.142 -0.408,-0.129 -0.95,0.215 -1.925,1.223 -1.613,1.664 -3.392,2.862 -4.251,2.862 -0.58,0 -0.551,0.134 0.443,2.106 0.582,1.159 1.556,3.318 2.163,4.798 0.607,1.48 1.358,2.897 1.67,3.149 0.312,0.251 0.971,1.407 1.464,2.569 l 0.895,2.113 2.089,0.505 c 1.149,0.278 3.253,0.862 4.678,1.299 7.246,2.223 15.281,2.787 22.236,1.56 z m 37.348,-0.957 c 0.87,-1.297 1.949,-5.357 1.949,-7.339 v -1.578 h -1.478 -1.478 l -0.19,3.274 c -0.103,1.801 -0.382,4.07 -0.618,5.043 l -0.429,1.768 0.792,-0.09 c 0.488,-0.06 1.044,-0.469 1.452,-1.075 z m -226.666,-4.199 c 4.177,-0.881 8.05,-3.481 9.699,-6.511 0.907,-1.667 0.807,-1.9 -0.408,-0.949 -0.419,0.328 -0.907,0.599 -1.086,0.602 -0.325,0.01 -2.504,-6.875 -3.202,-10.117 l -0.377,-1.747 -0.977,0.605 c -1.308,0.808 -1.488,0.772 -1.897,-0.385 -1.002,-2.832 -1.213,-7.893 -0.497,-11.931 0.193,-1.09 0.161,-1.174 -0.37,-0.969 -0.318,0.123 -0.957,0.301 -1.418,0.394 l -0.838,0.169 v -2.004 -2.004 l -1.142,-0.317 c -1.725,-0.479 -7.884,-0.396 -9.918,0.134 -3.175,0.827 -6.358,2.83 -7.967,5.011 -1.134,1.538 -1.029,1.826 0.539,1.491 0.722,-0.154 2.607,-0.24 4.189,-0.191 l 2.876,0.09 -1.688,0.956 c -0.928,0.526 -2.494,1.828 -3.479,2.892 -2.393,2.584 -3.487,5.06 -4.243,9.607 l -0.16,0.966 2.653,-1.332 c 1.458,-0.732 3.174,-1.415 3.812,-1.516 l 1.159,-0.184 -0.61,0.61 c -0.335,0.335 -0.833,1.04 -1.104,1.566 -0.537,1.038 -1.352,4.525 -1.361,5.82 0,0.972 0.894,2.162 1.696,2.243 1.801,0.182 3.478,0.558 3.478,0.781 0,0.14 -0.484,0.724 -1.074,1.298 l -1.073,1.042 1.067,0.507 c 2.205,1.046 3.656,1.398 5.775,1.398 2.26,0 5.425,-0.662 6.254,-1.307 0.406,-0.317 0.42,-0.3 0.09,0.118 -0.617,0.791 -4.11,2.423 -5.734,2.678 l -1.502,0.236 1.066,0.328 c 1.553,0.478 5.313,0.441 7.768,-0.08 z m 165.254,-29.368 c 0.922,-0.152 2.449,-0.567 3.394,-0.921 1.553,-0.583 1.775,-0.783 2.319,-2.083 0.878,-2.099 3.863,-10.011 10.713,-28.396 5.877,-15.775 10.679,-28.439 11.714,-30.889 0.276,-0.654 0.466,-1.223 0.423,-1.263 -0.05,-0.04 -0.903,0.06 -1.909,0.224 -3.919,0.642 -9.032,-0.461 -11.99,-2.587 l -1.492,-1.072 -1.249,3.401 c -0.686,1.87 -2.469,6.895 -3.961,11.168 -7.725,22.126 -16.88,47.728 -17.465,48.84 -0.732,1.395 3.467,3.778 6.762,3.836 0.586,0.01 1.82,-0.106 2.741,-0.258 z m -7.572,-12.057 c 0.672,-1.843 2.16,-6.024 3.304,-9.291 1.144,-3.267 3.407,-9.709 5.028,-14.317 1.62,-4.607 3.542,-10.09 4.27,-12.184 2.844,-8.178 6.813,-19.173 7.403,-20.505 l 0.619,-1.401 -1.728,-0.652 c -10.349,-3.907 -24.55,-8.79 -33.714,-11.593 -3.852,-1.179 -9.746,-3.014 -13.098,-4.079 -11.473,-3.646 -13.338,-4.158 -13.607,-3.736 -0.137,0.212 -0.6,1.551 -1.031,2.975 -0.43,1.424 -2.244,7.091 -4.027,12.593 -3.11,9.585 -3.22,10.017 -2.647,10.323 1.198,0.639 3.714,3.507 4.517,5.149 1.947,3.979 1.389,8.274 -1.156,8.913 -0.54,0.136 -0.692,0.404 -0.724,1.281 -0.08,2.221 -2.691,5.357 -5.478,6.59 -0.76,0.336 -2.462,0.766 -3.782,0.956 l -2.402,0.344 -3.031,9.133 c -1.668,5.023 -3.033,9.204 -3.032,9.291 0,0.434 45.267,13.391 56.504,16.174 2.266,0.561 3.881,1.132 4.251,1.501 0.668,0.667 0.35,1.332 3.561,-7.465 z m -9.486,-61.247 c -5.298,-1.223 -29.933,-9.006 -30.679,-9.693 -0.203,-0.187 -0.268,-0.504 -0.145,-0.705 0.165,-0.265 3.022,0.547 10.423,2.961 5.608,1.83 13.554,4.415 17.659,5.745 7.589,2.458 8.503,3.022 2.742,1.692 z m 41.576,49.361 c 4.27,-3.157 10.399,-7.21 11.747,-7.768 0.817,-0.339 1.362,-1.23 4.137,-6.774 2.943,-5.882 3.169,-6.458 2.872,-7.311 -0.738,-2.118 0.08,-6.025 1.369,-6.519 0.358,-0.137 0.452,-0.426 0.333,-1.026 -0.454,-2.264 1.896,-5.768 5.666,-8.452 1.78,-1.267 2.647,-2.119 3.171,-3.115 0.396,-0.754 3.612,-6.991 7.147,-13.86 3.535,-6.869 7.235,-14.031 8.222,-15.916 0.987,-1.885 2.636,-5.038 3.667,-7.006 1.064,-2.032 1.623,-3.37 1.295,-3.096 -5.375,4.492 -7.901,6.666 -18.551,15.966 -5.666,4.948 -11.172,9.518 -17.135,14.222 l -4.899,3.865 -0.364,1.77 c -0.366,1.787 -4.66,13.576 -10.352,28.425 -5.243,13.677 -9.44,24.867 -9.44,25.169 0,0.08 1.68,-1.215 3.732,-2.868 2.053,-1.654 5.375,-4.221 7.383,-5.706 z m -96.741,-1.441 c 0.499,-1.549 1.806,-5.479 2.905,-8.732 1.098,-3.254 1.998,-6.098 1.998,-6.321 0,-0.289 -0.483,-0.406 -1.676,-0.406 -0.921,0 -1.676,0.03 -1.677,0.08 0,0.04 -1.235,3.701 -2.741,8.131 -1.507,4.43 -2.739,8.284 -2.739,8.564 0,0.464 1.68,1.398 2.654,1.476 0.208,0.02 0.767,-1.205 1.276,-2.788 z m 124.483,-19.732 c 1.763,-0.853 4.568,-3.887 5.522,-5.97 1.381,-3.017 1.27,-7.793 -0.258,-11.005 -0.606,-1.274 -1.17,-1.473 -1.17,-0.414 0,0.945 -1.745,3.18 -3.818,4.888 -2.913,2.401 -2.978,2.664 -0.629,2.514 1.489,-0.09 2.014,-0.01 2.414,0.39 0.768,0.767 0.643,2.2 -0.264,3.041 -0.798,0.74 -3.829,2.296 -4.489,2.304 -0.205,0 -0.578,0.142 -0.829,0.31 -0.314,0.209 0.182,0.242 1.587,0.107 1.996,-0.193 2.053,-0.179 2.411,0.607 0.49,1.075 0.02,1.918 -1.649,3.004 -1.561,1.013 -0.769,1.164 1.172,0.224 z m -108.043,-28.102 c 1.501,-4.56 3.344,-10.385 4.097,-12.944 l 1.368,-4.653 -1.075,-0.45 c -2.074,-0.866 -2.022,-0.931 -3.851,4.806 -3.505,10.988 -6.288,19.981 -6.288,20.317 0,0.393 2.435,1.576 2.791,1.356 0.126,-0.08 1.457,-3.872 2.958,-8.432 z m 83.735,6.628 c 1.833,-0.544 2.814,-1.613 2.814,-3.066 0,-1.883 -0.718,-2.78 -2.665,-3.325 -0.654,-0.184 -0.685,-0.112 -0.685,1.58 v 1.772 l -5.103,0.02 c -5.134,0.02 -6.777,0.302 -6.777,1.145 0,0.35 2.011,1.428 3.96,2.123 1.045,0.372 6.944,0.196 8.456,-0.253 z m -10.986,-4.486 c 1.023,-0.605 1.575,-0.686 4.707,-0.686 h 3.549 l 0.142,-1.263 c 0.198,-1.761 2.031,-4.635 4.607,-7.224 4.774,-4.801 12.653,-10.143 36.588,-24.809 1.508,-0.924 2.948,-1.878 3.199,-2.12 0.679,-0.654 -1.616,0.539 -8.073,4.198 -3.183,1.804 -8.803,4.96 -12.489,7.014 -10.641,5.929 -14.417,8.496 -18.995,12.914 -2.878,2.779 -4.669,5.14 -6.248,8.244 -1.388,2.726 -1.431,2.116 -0.06,-0.885 1.403,-3.079 2.564,-4.706 5.647,-7.908 4.783,-4.97 10.592,-8.864 23.914,-16.031 2.762,-1.486 3.26,-1.763 8.081,-4.502 1.927,-1.094 3.931,-2.23 4.452,-2.524 2.122,-1.196 2.273,-1.342 2.184,-2.112 -0.05,-0.417 -0.313,-0.802 -0.589,-0.854 -0.927,-0.176 -19.017,8.2 -25.085,11.613 -10.288,5.788 -16.919,13.104 -20.118,22.195 -0.562,1.599 -0.728,1.883 -0.59,1.008 0.588,-3.745 4.894,-11.371 8.808,-15.598 4.562,-4.927 12.574,-9.972 24.236,-15.261 8.017,-3.635 11.881,-5.509 11.877,-5.759 -0.01,-0.735 -0.422,-1.611 -0.753,-1.611 -0.209,0 -1.05,0.268 -1.868,0.595 -0.818,0.327 -3.612,1.436 -6.209,2.463 -12.978,5.136 -19.175,8.378 -24.217,12.67 -6.781,5.772 -10.664,11.331 -13.164,18.846 -0.689,2.073 -0.962,2.635 -0.853,1.76 0.09,-0.707 0.519,-2.421 0.957,-3.808 2.662,-8.437 9.133,-16.596 17.63,-22.227 4.516,-2.993 10.61,-6.243 15.613,-8.326 1.885,-0.785 3.49,-1.529 3.568,-1.653 0.16,-0.26 -0.402,-2.497 -0.712,-2.825 -0.356,-0.379 -14.021,6.612 -17.943,9.179 -12.959,8.484 -19.723,17.211 -21.102,27.225 -0.193,1.402 -0.255,3.474 -0.14,4.711 0.115,1.215 0.138,2.209 0.06,2.209 -0.08,0 -0.658,-0.926 -1.277,-2.057 -3.118,-5.69 -9.806,-11.738 -16.953,-15.332 -5.541,-2.786 -12.44,-5.067 -19.596,-6.48 -5.963,-1.176 -6.959,-1.331 -15.986,-2.486 -6.586,-0.841 -8.397,-0.986 -8.588,-0.683 -0.309,0.487 -0.329,2.363 -0.02,2.366 0.127,0 3.588,0.551 7.692,1.222 18.595,3.042 24.841,4.783 34.489,9.609 5.274,2.639 9.585,5.519 12.422,8.297 l 2.284,2.237 -2.284,-1.881 c -5.303,-4.365 -13.141,-8.828 -19.8,-11.274 -3.277,-1.203 -9.439,-2.79 -14.164,-3.646 -3.982,-0.722 -22.332,-3.653 -22.87,-3.653 -0.497,0 -1.095,2.138 -0.639,2.285 0.197,0.06 1.934,0.406 3.86,0.76 4.286,0.787 21.06,4.626 24.827,5.682 4.702,1.317 8.336,2.543 13.965,4.711 5.983,2.303 9.712,4.074 12.705,6.034 2.373,1.553 2.176,1.506 -1.413,-0.338 -10.942,-5.621 -24.299,-9.631 -49.005,-14.712 -7.261,-1.493 -7.437,-1.52 -7.002,-1.085 0.16,0.159 2.825,0.904 5.925,1.655 6.525,1.58 9.364,2.388 23.027,6.551 18.483,5.632 30.47,10.09 34.545,12.847 0.921,0.624 1.769,1.148 1.886,1.166 0.116,0.02 0.733,-0.276 1.371,-0.653 z m 17.406,-3.423 c 0.895,-0.915 4.664,-4.096 8.377,-7.069 3.713,-2.974 9.974,-8.084 13.912,-11.356 3.939,-3.271 8.608,-7.068 10.376,-8.437 2.983,-2.309 4.831,-3.991 3.635,-3.307 -0.252,0.143 -2.24,1.456 -4.418,2.917 -2.178,1.462 -7.044,4.684 -10.813,7.161 -16.939,11.132 -18.999,12.605 -25.055,17.915 l -2.055,1.802 1.903,0.99 c 1.047,0.544 2.04,1.002 2.207,1.018 0.168,0.02 1.038,-0.72 1.931,-1.634 z m -95.068,-88.149 c -0.139,-0.534 -0.07,-0.544 1.2,-0.162 0.74,0.223 2.575,0.498 4.077,0.612 l 2.731,0.206 -0.451,-0.868 c -0.247,-0.477 -0.408,-0.91 -0.357,-0.962 0.06,-0.05 0.625,0.127 1.272,0.397 1.264,0.529 2.553,0.617 4.088,0.28 0.894,-0.196 0.929,-0.249 0.48,-0.745 -0.454,-0.501 -0.378,-0.536 1.274,-0.582 3.201,-0.09 4.385,-0.356 4.196,-0.949 -0.146,-0.462 0.147,-0.552 2.352,-0.72 1.385,-0.106 3.128,-0.379 3.872,-0.607 1.291,-0.397 1.316,-0.425 0.533,-0.621 -0.45,-0.113 -0.82,-0.314 -0.82,-0.447 0,-0.132 0.72,-0.575 1.599,-0.984 1.269,-0.59 1.619,-0.91 1.693,-1.549 0.115,-0.966 1.278,-2.219 1.278,-1.374 0,1.149 1.984,-0.05 2.903,-1.759 0.682,-1.266 0.914,-1.345 1.175,-0.402 l 0.189,0.685 0.618,-0.761 c 1.009,-1.248 3.026,-4.981 3.03,-5.613 0,-0.555 0.05,-0.551 0.715,0.08 l 0.71,0.668 0.356,-0.781 c 0.196,-0.43 0.358,-1.083 0.36,-1.452 0,-0.489 0.08,-0.56 0.265,-0.261 0.744,1.174 1.323,-4.459 0.6,-5.837 -0.337,-0.645 -0.329,-0.649 0.252,-0.132 0.332,0.293 0.694,0.533 0.806,0.533 0.115,0 0.205,-1.047 0.205,-2.325 v -2.325 l -1.294,0.198 c -0.713,0.108 -2.837,0.284 -4.722,0.39 l -3.427,0.192 v 2.011 c 0,1.287 -0.207,2.449 -0.563,3.229 -0.692,1.514 -2.975,3.647 -4.602,4.298 -0.814,0.325 -1.225,0.68 -1.225,1.055 0,1.149 -1.248,3.846 -2.208,4.775 -2.493,2.41 -7.571,3.473 -11.35,2.374 -1.498,-0.435 -2.118,-0.849 -3.715,-2.478 -1.055,-1.076 -1.918,-2.091 -1.918,-2.256 0,-0.164 0.68,0.12 1.512,0.631 2.712,1.669 4.689,2.189 7.779,2.047 3.452,-0.159 5.218,-0.888 6.528,-2.697 0.515,-0.71 0.935,-1.601 0.935,-1.98 0,-0.567 -0.217,-0.726 -1.229,-0.897 -0.677,-0.114 -1.635,-0.548 -2.131,-0.966 l -0.901,-0.758 -1.233,1.056 c -0.678,0.58 -1.848,1.227 -2.599,1.437 -1.81,0.507 -4.564,0.232 -6.247,-0.623 -1.396,-0.71 -5.46,-4.704 -5.46,-5.367 0,-0.876 0.671,-0.622 2.512,0.949 3.572,3.05 6.466,3.683 9.628,2.107 2.231,-1.112 2.635,-1.844 2.593,-4.699 -0.06,-4.232 -0.697,-5.129 -4.511,-6.386 -2.37,-0.781 -3.612,-1.791 -3.465,-2.823 0.157,-1.108 2.541,-1.08 5.796,0.07 2.775,0.98 3.738,1.126 4.052,0.617 0.34,-0.549 3.324,-2.12 4.033,-2.123 0.535,0 0.685,0.17 0.685,0.788 0,1.193 -0.8,2.291 -2.533,3.475 -2.22,1.517 -2.381,1.959 -2.155,5.939 0.166,2.92 0.273,3.416 0.836,3.863 2.194,1.742 6.516,0.303 7.839,-2.61 1.053,-2.32 0.655,-4.294 -2.198,-10.891 -1.04,-2.406 -2.793,-6.555 -3.896,-9.22 -2.479,-5.989 -2.616,-6.121 -6.369,-6.121 -2.209,0 -2.892,0.125 -4.165,0.762 l -1.524,0.761 -1.412,4.224 c -3.272,9.791 -6.529,14.268 -11.656,16.025 -3.8,1.302 -10.817,1.537 -14.726,0.491 -5.544,-1.482 -8.903,-5.252 -10.389,-11.659 -0.54,-2.332 -1.26,-8.263 -1.264,-10.406 0,-0.406 -0.408,-1.096 -0.946,-1.599 l -0.946,-0.884 h -5.223 c -2.872,0 -7.164,0.09 -9.537,0.199 l -4.315,0.197 -0.972,3.324 c -0.534,1.829 -1.045,3.877 -1.135,4.552 l -0.165,1.228 1.306,-0.667 c 1.202,-0.613 1.287,-0.621 1.077,-0.104 -1.104,2.71 -1.433,4.181 -1.234,5.511 l 0.213,1.419 0.606,-0.748 0.604,-0.747 -0.194,1.371 c -0.504,3.532 -0.744,6.292 -0.59,6.777 0.202,0.64 0.92,0.668 1.955,0.08 0.419,-0.239 0.846,-0.44 0.949,-0.446 0.103,-0.01 -0.07,0.912 -0.38,2.039 -0.852,3.071 -0.712,7.334 0.192,5.871 0.104,-0.168 0.368,-0.305 0.587,-0.305 0.274,0 0.443,0.644 0.546,2.068 0.08,1.137 0.32,2.389 0.531,2.782 l 0.382,0.715 0.485,-1.002 0.484,-1.001 0.274,0.884 c 0.471,1.522 2.431,5.606 2.691,5.606 0.136,0 0.548,-0.407 0.916,-0.905 l 0.67,-0.906 0.839,1.662 c 0.838,1.661 3.536,5.328 3.921,5.328 0.115,0 0.52,-0.764 0.907,-1.697 l 0.704,-1.697 0.845,1.48 c 0.464,0.814 1.646,2.296 2.627,3.294 l 1.782,1.814 0.09,-1.151 0.09,-1.151 2.15,1.991 c 1.183,1.095 2.289,1.991 2.458,1.991 0.183,0 0.242,-0.495 0.144,-1.222 l -0.164,-1.221 0.932,0.784 c 0.95,0.799 4.357,2.612 5.681,3.024 0.697,0.217 0.723,0.176 0.555,-0.86 l -0.176,-1.087 1.247,0.903 c 1.493,1.082 4.563,2.079 7.082,2.302 l 1.833,0.162 -0.719,-0.631 c -0.859,-0.754 -0.572,-0.792 1.214,-0.16 1.065,0.377 4.851,1.193 6.166,1.329 0.145,0.01 0.197,-0.228 0.115,-0.54 z m -5.036,-31.07 c 3.726,-0.892 5.17,-2.346 7.698,-7.756 2.991,-6.398 4.231,-12.507 3.092,-15.233 -1.416,-3.39 -7.04,-4.63 -19.964,-4.402 l -7.434,0.131 -0.716,0.891 c -1.564,1.943 -2.043,3.892 -2.171,8.829 -0.18,7.013 0.788,11.502 3.149,14.597 0.919,1.206 3.833,2.767 5.925,3.175 2.522,0.493 7.891,0.373 10.421,-0.232 z m -10.625,-6.104 c -1.435,-0.369 -3.581,-1.713 -4.534,-2.842 -3.69,-4.366 -2.297,-11.618 2.758,-14.35 1.017,-0.55 1.72,-0.659 4.264,-0.659 2.712,0 3.212,0.09 4.57,0.811 1.973,1.05 3.277,2.439 4.242,4.52 2.108,4.545 -0.119,9.683 -5.162,11.914 -1.603,0.709 -4.589,1.004 -6.138,0.606 z m 5.054,-11.481 c 2.311,-1.944 0.02,-5.306 -2.857,-4.2 -0.79,0.303 -1.45,1.867 -1.223,2.901 0.207,0.938 1.652,2.084 2.633,2.087 0.28,0 0.931,-0.354 1.447,-0.788 z m 49.767,16.961 c 1.892,-0.311 2.328,-0.728 1.601,-1.532 -0.671,-0.741 -0.447,-1.46 0.497,-1.595 0.55,-0.08 0.685,-0.268 0.62,-0.862 -0.05,-0.418 -0.219,-0.806 -0.381,-0.862 -0.455,-0.156 -0.351,-0.66 0.136,-0.66 0.704,0 0.731,-0.703 0.06,-1.615 -0.506,-0.686 -0.549,-0.902 -0.22,-1.106 0.31,-0.191 0.171,-0.429 -0.57,-0.974 -1.006,-0.741 -2.08,-2.397 -1.555,-2.397 0.162,0 0.379,0.137 0.482,0.305 0.104,0.167 0.395,0.304 0.646,0.304 0.285,0 0.37,-0.141 0.225,-0.375 -0.128,-0.207 -0.336,-2.777 -0.465,-5.712 -0.162,-3.691 -0.417,-6.025 -0.829,-7.572 -0.327,-1.23 -0.675,-2.315 -0.771,-2.411 -0.506,-0.507 -10.905,0.974 -12.378,1.763 -1.453,0.777 -2.376,4.913 -1.777,7.96 0.236,1.199 0.447,1.685 0.615,1.42 0.142,-0.222 0.258,-0.638 0.261,-0.925 0,-0.287 0.297,-1.315 0.655,-2.285 1.654,-4.479 6.025,-6.032 10.161,-3.608 3.211,1.881 4.386,7.067 2.451,10.81 -1.081,2.089 -3.957,3.661 -6.713,3.668 -2.951,0.01 -4.01,-0.423 -5.075,-2.067 -1.29,-1.992 -0.858,-0.704 1.415,4.223 1.047,2.269 2.007,4.463 2.134,4.874 0.439,1.426 0.665,1.509 4.076,1.49 1.781,-0.01 3.896,-0.127 4.699,-0.259 z m 6.921,-1.579 c 0.973,-0.518 2.045,-1.238 2.383,-1.599 2.1,-2.244 5.479,-12.826 5.629,-17.627 0.08,-2.669 0,-2.704 -5.276,-2.335 -6.136,0.428 -5.759,0.3 -5.457,1.861 0.352,1.821 0.337,7.149 -0.02,9.062 -0.294,1.545 -0.271,1.639 0.626,2.661 0.876,0.998 0.898,1.082 0.38,1.462 -0.523,0.382 -0.514,0.441 0.19,1.19 0.715,0.761 0.724,0.825 0.256,1.804 -0.308,0.648 -0.385,1.171 -0.211,1.445 0.48,0.759 0.314,1.748 -0.328,1.952 -0.638,0.202 -0.858,1.066 -0.272,1.066 0.186,0 1.134,-0.424 2.106,-0.942 z m -10.887,-17.08 c 0.744,-1.001 0.525,-2.172 -0.536,-2.868 -1.47,-0.963 -3.863,0.651 -3.303,2.229 0.64,1.803 2.717,2.149 3.839,0.639 z m -61.105,-5.131 c 0.95,-1.896 -2.269,-3.361 -3.272,-1.489 -0.463,0.867 -0.104,2.075 0.703,2.374 0.965,0.357 2.152,-0.05 2.569,-0.885 z m 83.672,-0.324 c 1.337,-1.052 0.919,-2.72 -0.681,-2.72 -1.013,0 -1.867,0.83 -1.867,1.814 0,1.564 1.179,1.983 2.548,0.906 z m -17.093,-2.617 c -0.21,-0.08 -0.553,-0.08 -0.761,0 -0.21,0.08 -0.03,0.154 0.38,0.154 0.419,0 0.59,-0.07 0.381,-0.154 z m 2.53,-24.0249 c -0.324,-0.2459 -0.727,-0.4471 -0.895,-0.4471 -0.167,0 -0.03,0.2012 0.286,0.4471 0.326,0.2461 0.729,0.4473 0.896,0.4473 0.168,0 0.04,-0.2012 -0.287,-0.4473 z m -3.967,-21.6398 c 3.594,-7.4428 4.223,-17.2791 1.528,-23.9116 -0.933,-2.2952 -2.888,-5.1362 -4.465,-6.4855 -1.365,-1.1695 -1.795,-1.1836 -1.795,-0.059 0,1.306 -1.513,5.9504 -2.723,8.3558 -1.54,3.0654 -3.532,5.6767 -8.243,10.8117 -2.094,2.2827 -3.807,4.3002 -3.807,4.4835 0,0.1833 0.771,0.6472 1.714,1.0308 0.943,0.3837 2.232,1.0496 2.865,1.4799 l 1.152,0.7824 3.999,-5.8911 c 2.201,-3.2401 4.672,-7.0884 5.493,-8.5518 l 1.494,-2.6607 0.553,0.6833 c 0.729,0.9006 1.389,3.3019 1.633,5.9416 0.354,3.8425 -1.215,10.2964 -3.629,14.9262 -0.524,1.0052 -0.996,1.9183 -1.048,2.029 -0.05,0.1106 0.487,0.5482 1.198,0.9719 l 1.291,0.7704 0.728,-0.9718 c 0.399,-0.5346 1.327,-2.2153 2.062,-3.7352 z" id="path98"/>
  </g>
</svg>